<mxfile host="app.diagrams.net" agent="Mozilla/5.0 (Macintosh; Intel Mac OS X 10_15_7) AppleWebKit/605.1.15 (KHTML, like Gecko) Version/18.1.1 Safari/605.1.15" version="24.9.3" pages="8">
  <diagram id="C5RBs43oDa-KdzZeNtuy" name="Proposer une vente">
    <mxGraphModel dx="1687" dy="916" grid="1" gridSize="10" guides="1" tooltips="1" connect="1" arrows="1" fold="1" page="1" pageScale="1" pageWidth="1169" pageHeight="827" math="0" shadow="0">
      <root>
        <mxCell id="WIyWlLk6GJQsqaUBKTNV-0" />
        <mxCell id="WIyWlLk6GJQsqaUBKTNV-1" parent="WIyWlLk6GJQsqaUBKTNV-0" />
        <mxCell id="6fjeX-WFXTnpHTN24mRC-0" value="" style="endArrow=none;html=1;rounded=0;" edge="1" parent="WIyWlLk6GJQsqaUBKTNV-1">
          <mxGeometry width="50" height="50" relative="1" as="geometry">
            <mxPoint x="360" y="820" as="sourcePoint" />
            <mxPoint x="360" as="targetPoint" />
          </mxGeometry>
        </mxCell>
        <mxCell id="6fjeX-WFXTnpHTN24mRC-1" value="" style="endArrow=none;html=1;rounded=0;" edge="1" parent="WIyWlLk6GJQsqaUBKTNV-1">
          <mxGeometry width="50" height="50" relative="1" as="geometry">
            <mxPoint x="840" y="820" as="sourcePoint" />
            <mxPoint x="840" as="targetPoint" />
          </mxGeometry>
        </mxCell>
        <mxCell id="6fjeX-WFXTnpHTN24mRC-2" value="&lt;h1 style=&quot;margin-top: 0px;&quot;&gt;Fournisseur&lt;/h1&gt;" style="text;html=1;whiteSpace=wrap;overflow=hidden;rounded=0;" vertex="1" parent="WIyWlLk6GJQsqaUBKTNV-1">
          <mxGeometry x="110" y="40" width="140" height="40" as="geometry" />
        </mxCell>
        <mxCell id="6fjeX-WFXTnpHTN24mRC-3" value="&lt;h1 style=&quot;margin-top: 0px;&quot;&gt;Gérant&lt;/h1&gt;" style="text;html=1;whiteSpace=wrap;overflow=hidden;rounded=0;" vertex="1" parent="WIyWlLk6GJQsqaUBKTNV-1">
          <mxGeometry x="570" y="40" width="80" height="40" as="geometry" />
        </mxCell>
        <mxCell id="6fjeX-WFXTnpHTN24mRC-4" value="&lt;h1 style=&quot;margin-top: 0px;&quot;&gt;Client&lt;/h1&gt;" style="text;html=1;whiteSpace=wrap;overflow=hidden;rounded=0;" vertex="1" parent="WIyWlLk6GJQsqaUBKTNV-1">
          <mxGeometry x="990" y="40" width="70" height="40" as="geometry" />
        </mxCell>
        <mxCell id="6fjeX-WFXTnpHTN24mRC-5" value="" style="ellipse;whiteSpace=wrap;html=1;aspect=fixed;fillColor=#000000;" vertex="1" parent="WIyWlLk6GJQsqaUBKTNV-1">
          <mxGeometry x="135" y="110" width="50" height="50" as="geometry" />
        </mxCell>
        <mxCell id="6fjeX-WFXTnpHTN24mRC-7" value="&lt;span class=&quot;OYPEnA font-feature-liga-off font-feature-clig-off font-feature-calt-off text-decoration-none text-strikethrough-none&quot; style=&quot;font-kerning: none;&quot;&gt;Remplir informations (spécialité, matériel)&lt;/span&gt;" style="rounded=1;whiteSpace=wrap;html=1;fontSize=12;glass=0;strokeWidth=1;shadow=0;align=center;" vertex="1" parent="WIyWlLk6GJQsqaUBKTNV-1">
          <mxGeometry x="20" y="342" width="120" height="40" as="geometry" />
        </mxCell>
        <mxCell id="6fjeX-WFXTnpHTN24mRC-8" value="&lt;span class=&quot;OYPEnA font-feature-liga-off font-feature-clig-off font-feature-calt-off text-decoration-none text-strikethrough-none&quot; style=&quot;font-kerning: none;&quot;&gt;Vérifier le status&lt;/span&gt;" style="rounded=1;whiteSpace=wrap;html=1;fontSize=12;glass=0;strokeWidth=1;shadow=0;align=center;" vertex="1" parent="WIyWlLk6GJQsqaUBKTNV-1">
          <mxGeometry x="185" y="342" width="120" height="40" as="geometry" />
        </mxCell>
        <mxCell id="6fjeX-WFXTnpHTN24mRC-9" value="&lt;span class=&quot;OYPEnA font-feature-liga-off font-feature-clig-off font-feature-calt-off text-decoration-none text-strikethrough-none&quot; style=&quot;font-kerning: none;&quot;&gt;Remplir les informations de la vente&lt;/span&gt;" style="rounded=1;whiteSpace=wrap;html=1;fontSize=12;glass=0;strokeWidth=1;shadow=0;align=center;" vertex="1" parent="WIyWlLk6GJQsqaUBKTNV-1">
          <mxGeometry x="55" y="486" width="210" height="46" as="geometry" />
        </mxCell>
        <mxCell id="6fjeX-WFXTnpHTN24mRC-10" value="&lt;span style=&quot;text-align: start; font-kerning: none;&quot; class=&quot;OYPEnA font-feature-liga-off font-feature-clig-off font-feature-calt-off text-decoration-none text-strikethrough-none&quot;&gt;Consulter les informations de la vente&lt;/span&gt;" style="rounded=1;whiteSpace=wrap;html=1;fontSize=12;glass=0;strokeWidth=1;shadow=0;align=center;" vertex="1" parent="WIyWlLk6GJQsqaUBKTNV-1">
          <mxGeometry x="505" y="414" width="210" height="46" as="geometry" />
        </mxCell>
        <mxCell id="6fjeX-WFXTnpHTN24mRC-11" value="La vente est acceptée ?" style="rhombus;whiteSpace=wrap;html=1;shadow=0;fontFamily=Helvetica;fontSize=12;align=center;strokeWidth=1;spacing=6;spacingTop=-4;" vertex="1" parent="WIyWlLk6GJQsqaUBKTNV-1">
          <mxGeometry x="555" y="540" width="110" height="90" as="geometry" />
        </mxCell>
        <mxCell id="6fjeX-WFXTnpHTN24mRC-12" value="&lt;span style=&quot;text-align: start; font-kerning: none;&quot; class=&quot;OYPEnA font-feature-liga-off font-feature-clig-off font-feature-calt-off text-decoration-none text-strikethrough-none&quot;&gt;Recevoir un email personnalisé&lt;/span&gt;" style="rounded=1;whiteSpace=wrap;html=1;fontSize=12;glass=0;strokeWidth=1;shadow=0;align=center;" vertex="1" parent="WIyWlLk6GJQsqaUBKTNV-1">
          <mxGeometry x="935" y="571" width="180" height="28" as="geometry" />
        </mxCell>
        <mxCell id="6fjeX-WFXTnpHTN24mRC-14" value="[ELSE]" style="edgeStyle=orthogonalEdgeStyle;rounded=0;html=1;jettySize=auto;orthogonalLoop=1;fontSize=11;endArrow=block;endFill=0;endSize=8;strokeWidth=1;shadow=0;labelBackgroundColor=none;entryX=0.5;entryY=0;entryDx=0;entryDy=0;entryPerimeter=0;exitX=0;exitY=0.5;exitDx=0;exitDy=0;" edge="1" parent="WIyWlLk6GJQsqaUBKTNV-1" source="6fjeX-WFXTnpHTN24mRC-11" target="6fjeX-WFXTnpHTN24mRC-15">
          <mxGeometry x="-0.4634" y="-15" relative="1" as="geometry">
            <mxPoint as="offset" />
            <mxPoint x="450" y="660" as="sourcePoint" />
            <mxPoint x="-200" y="340" as="targetPoint" />
          </mxGeometry>
        </mxCell>
        <mxCell id="6fjeX-WFXTnpHTN24mRC-15" value="" style="verticalLabelPosition=bottom;verticalAlign=top;html=1;shape=mxgraph.flowchart.or;" vertex="1" parent="WIyWlLk6GJQsqaUBKTNV-1">
          <mxGeometry x="450" y="720" width="70" height="70" as="geometry" />
        </mxCell>
        <mxCell id="6fjeX-WFXTnpHTN24mRC-18" value="" style="rounded=0;html=1;jettySize=auto;orthogonalLoop=1;fontSize=11;endArrow=block;endFill=0;endSize=8;strokeWidth=1;shadow=0;labelBackgroundColor=none;edgeStyle=orthogonalEdgeStyle;entryX=0.5;entryY=0;entryDx=0;entryDy=0;exitX=0.5;exitY=1;exitDx=0;exitDy=0;" edge="1" parent="WIyWlLk6GJQsqaUBKTNV-1" source="6fjeX-WFXTnpHTN24mRC-10" target="6fjeX-WFXTnpHTN24mRC-11">
          <mxGeometry relative="1" as="geometry">
            <mxPoint x="-300" y="250" as="sourcePoint" />
            <mxPoint x="-300" y="300" as="targetPoint" />
          </mxGeometry>
        </mxCell>
        <mxCell id="6fjeX-WFXTnpHTN24mRC-19" value="" style="rounded=0;html=1;jettySize=auto;orthogonalLoop=1;fontSize=11;endArrow=block;endFill=0;endSize=8;strokeWidth=1;shadow=0;labelBackgroundColor=none;edgeStyle=orthogonalEdgeStyle;entryX=0;entryY=0.5;entryDx=0;entryDy=0;exitX=1;exitY=0.5;exitDx=0;exitDy=0;" edge="1" parent="WIyWlLk6GJQsqaUBKTNV-1" source="6fjeX-WFXTnpHTN24mRC-9" target="6fjeX-WFXTnpHTN24mRC-10">
          <mxGeometry relative="1" as="geometry">
            <mxPoint x="620" y="470" as="sourcePoint" />
            <mxPoint x="620" y="550" as="targetPoint" />
          </mxGeometry>
        </mxCell>
        <mxCell id="6fjeX-WFXTnpHTN24mRC-20" value="" style="rounded=0;html=1;jettySize=auto;orthogonalLoop=1;fontSize=11;endArrow=block;endFill=0;endSize=8;strokeWidth=1;shadow=0;labelBackgroundColor=none;edgeStyle=orthogonalEdgeStyle;entryX=0.5;entryY=0;entryDx=0;entryDy=0;exitX=0.5;exitY=1;exitDx=0;exitDy=0;" edge="1" parent="WIyWlLk6GJQsqaUBKTNV-1" source="6fjeX-WFXTnpHTN24mRC-7" target="6fjeX-WFXTnpHTN24mRC-9">
          <mxGeometry relative="1" as="geometry">
            <mxPoint x="60" y="382" as="sourcePoint" />
            <mxPoint x="495" y="519" as="targetPoint" />
          </mxGeometry>
        </mxCell>
        <mxCell id="6fjeX-WFXTnpHTN24mRC-21" value="" style="rounded=0;html=1;jettySize=auto;orthogonalLoop=1;fontSize=11;endArrow=block;endFill=0;endSize=8;strokeWidth=1;shadow=0;labelBackgroundColor=none;edgeStyle=orthogonalEdgeStyle;entryX=0.5;entryY=0;entryDx=0;entryDy=0;exitX=0.5;exitY=1;exitDx=0;exitDy=0;" edge="1" parent="WIyWlLk6GJQsqaUBKTNV-1" source="6fjeX-WFXTnpHTN24mRC-8" target="6fjeX-WFXTnpHTN24mRC-9">
          <mxGeometry relative="1" as="geometry">
            <mxPoint x="70" y="392" as="sourcePoint" />
            <mxPoint x="170" y="496" as="targetPoint" />
          </mxGeometry>
        </mxCell>
        <mxCell id="6fjeX-WFXTnpHTN24mRC-22" value="" style="rounded=0;html=1;jettySize=auto;orthogonalLoop=1;fontSize=11;endArrow=block;endFill=0;endSize=8;strokeWidth=1;shadow=0;labelBackgroundColor=none;edgeStyle=orthogonalEdgeStyle;exitX=0.5;exitY=1;exitDx=0;exitDy=0;entryX=0.5;entryY=0;entryDx=0;entryDy=0;" edge="1" parent="WIyWlLk6GJQsqaUBKTNV-1" source="6fjeX-WFXTnpHTN24mRC-5" target="6fjeX-WFXTnpHTN24mRC-23">
          <mxGeometry relative="1" as="geometry">
            <mxPoint x="275" y="320" as="sourcePoint" />
            <mxPoint x="180" y="230" as="targetPoint" />
          </mxGeometry>
        </mxCell>
        <mxCell id="6fjeX-WFXTnpHTN24mRC-23" value="Dispose d&#39;un compte ?" style="rhombus;whiteSpace=wrap;html=1;shadow=0;fontFamily=Helvetica;fontSize=12;align=center;strokeWidth=1;spacing=6;spacingTop=-4;" vertex="1" parent="WIyWlLk6GJQsqaUBKTNV-1">
          <mxGeometry x="110" y="220" width="100" height="80" as="geometry" />
        </mxCell>
        <mxCell id="6fjeX-WFXTnpHTN24mRC-26" value="[ELSE]" style="rounded=0;html=1;jettySize=auto;orthogonalLoop=1;fontSize=11;endArrow=block;endFill=0;endSize=8;strokeWidth=1;shadow=0;labelBackgroundColor=none;edgeStyle=orthogonalEdgeStyle;exitX=0;exitY=0.5;exitDx=0;exitDy=0;entryX=0.5;entryY=0;entryDx=0;entryDy=0;" edge="1" parent="WIyWlLk6GJQsqaUBKTNV-1" source="6fjeX-WFXTnpHTN24mRC-23" target="6fjeX-WFXTnpHTN24mRC-7">
          <mxGeometry x="-0.6427" y="-10" relative="1" as="geometry">
            <mxPoint as="offset" />
            <mxPoint x="-300" y="380" as="sourcePoint" />
            <mxPoint x="-300" y="420" as="targetPoint" />
            <Array as="points">
              <mxPoint x="80" y="260" />
            </Array>
          </mxGeometry>
        </mxCell>
        <mxCell id="6fjeX-WFXTnpHTN24mRC-27" value="" style="strokeWidth=2;html=1;shape=mxgraph.flowchart.start_2;whiteSpace=wrap;" vertex="1" parent="WIyWlLk6GJQsqaUBKTNV-1">
          <mxGeometry x="1000" y="700" width="50" height="50" as="geometry" />
        </mxCell>
        <mxCell id="6fjeX-WFXTnpHTN24mRC-28" value="" style="ellipse;whiteSpace=wrap;html=1;aspect=fixed;fillColor=#000000;" vertex="1" parent="WIyWlLk6GJQsqaUBKTNV-1">
          <mxGeometry x="1010" y="710" width="30" height="30" as="geometry" />
        </mxCell>
        <mxCell id="6fjeX-WFXTnpHTN24mRC-30" value="" style="rounded=0;html=1;jettySize=auto;orthogonalLoop=1;fontSize=11;endArrow=block;endFill=0;endSize=8;strokeWidth=1;shadow=0;labelBackgroundColor=none;edgeStyle=orthogonalEdgeStyle;entryX=0.5;entryY=0;entryDx=0;entryDy=0;exitX=0.5;exitY=1;exitDx=0;exitDy=0;entryPerimeter=0;" edge="1" parent="WIyWlLk6GJQsqaUBKTNV-1" source="6fjeX-WFXTnpHTN24mRC-12" target="6fjeX-WFXTnpHTN24mRC-27">
          <mxGeometry relative="1" as="geometry">
            <mxPoint x="620" y="470" as="sourcePoint" />
            <mxPoint x="620" y="550" as="targetPoint" />
          </mxGeometry>
        </mxCell>
        <mxCell id="4V91frUIKwAqAqJaIzgj-0" value="" style="rounded=0;html=1;jettySize=auto;orthogonalLoop=1;fontSize=11;endArrow=block;endFill=0;endSize=8;strokeWidth=1;shadow=0;labelBackgroundColor=none;edgeStyle=orthogonalEdgeStyle;exitX=1;exitY=0.5;exitDx=0;exitDy=0;entryX=0.5;entryY=0;entryDx=0;entryDy=0;" edge="1" parent="WIyWlLk6GJQsqaUBKTNV-1" source="6fjeX-WFXTnpHTN24mRC-23" target="6fjeX-WFXTnpHTN24mRC-8">
          <mxGeometry relative="1" as="geometry">
            <mxPoint x="170" y="170" as="sourcePoint" />
            <mxPoint x="170" y="230" as="targetPoint" />
          </mxGeometry>
        </mxCell>
        <mxCell id="4V91frUIKwAqAqJaIzgj-1" value="" style="rounded=0;html=1;jettySize=auto;orthogonalLoop=1;fontSize=11;endArrow=block;endFill=0;endSize=8;strokeWidth=1;shadow=0;labelBackgroundColor=none;edgeStyle=orthogonalEdgeStyle;exitX=1;exitY=0.5;exitDx=0;exitDy=0;entryX=0;entryY=0.5;entryDx=0;entryDy=0;" edge="1" parent="WIyWlLk6GJQsqaUBKTNV-1" source="6fjeX-WFXTnpHTN24mRC-11" target="6fjeX-WFXTnpHTN24mRC-12">
          <mxGeometry relative="1" as="geometry">
            <mxPoint x="180" y="180" as="sourcePoint" />
            <mxPoint x="180" y="240" as="targetPoint" />
            <Array as="points">
              <mxPoint x="880" y="585" />
              <mxPoint x="880" y="585" />
            </Array>
          </mxGeometry>
        </mxCell>
      </root>
    </mxGraphModel>
  </diagram>
  <diagram name="Client devient client privilégié" id="EB1RdvkkkqMEBQdoc_2i">
    <mxGraphModel dx="1687" dy="916" grid="1" gridSize="10" guides="1" tooltips="1" connect="1" arrows="1" fold="1" page="1" pageScale="1" pageWidth="1169" pageHeight="827" math="0" shadow="0">
      <root>
        <mxCell id="NSyCwPkIbxhuFNTUXFhv-0" />
        <mxCell id="NSyCwPkIbxhuFNTUXFhv-1" parent="NSyCwPkIbxhuFNTUXFhv-0" />
        <mxCell id="NSyCwPkIbxhuFNTUXFhv-2" value="" style="endArrow=none;html=1;rounded=0;" edge="1" parent="NSyCwPkIbxhuFNTUXFhv-1">
          <mxGeometry width="50" height="50" relative="1" as="geometry">
            <mxPoint x="600" y="818" as="sourcePoint" />
            <mxPoint x="600" y="15" as="targetPoint" />
          </mxGeometry>
        </mxCell>
        <mxCell id="NSyCwPkIbxhuFNTUXFhv-6" value="&lt;h1 style=&quot;margin-top: 0px;&quot;&gt;Client&lt;/h1&gt;" style="text;html=1;whiteSpace=wrap;overflow=hidden;rounded=0;" vertex="1" parent="NSyCwPkIbxhuFNTUXFhv-1">
          <mxGeometry x="285" y="28" width="70" height="40" as="geometry" />
        </mxCell>
        <mxCell id="NSyCwPkIbxhuFNTUXFhv-7" value="" style="ellipse;whiteSpace=wrap;html=1;aspect=fixed;fillColor=#000000;" vertex="1" parent="NSyCwPkIbxhuFNTUXFhv-1">
          <mxGeometry x="811.88" y="118" width="30" height="30" as="geometry" />
        </mxCell>
        <mxCell id="NSyCwPkIbxhuFNTUXFhv-8" value="Remplir le formulaire" style="rounded=1;whiteSpace=wrap;html=1;fontSize=12;glass=0;strokeWidth=1;shadow=0;align=center;" vertex="1" parent="NSyCwPkIbxhuFNTUXFhv-1">
          <mxGeometry x="110" y="308" width="120" height="40" as="geometry" />
        </mxCell>
        <mxCell id="NSyCwPkIbxhuFNTUXFhv-13" value="&lt;span style=&quot;text-align: start; font-kerning: none;&quot; class=&quot;OYPEnA font-feature-liga-off font-feature-clig-off font-feature-calt-off text-decoration-none text-strikethrough-none&quot;&gt;Devient client privilégié&lt;/span&gt;" style="rounded=1;whiteSpace=wrap;html=1;fontSize=12;glass=0;strokeWidth=1;shadow=0;align=center;" vertex="1" parent="NSyCwPkIbxhuFNTUXFhv-1">
          <mxGeometry x="200" y="518" width="220" height="46" as="geometry" />
        </mxCell>
        <mxCell id="NSyCwPkIbxhuFNTUXFhv-22" value="Client intéressé ?" style="rhombus;whiteSpace=wrap;html=1;shadow=0;fontFamily=Helvetica;fontSize=12;align=center;strokeWidth=1;spacing=6;spacingTop=-4;" vertex="1" parent="NSyCwPkIbxhuFNTUXFhv-1">
          <mxGeometry x="270" y="238" width="110" height="80" as="geometry" />
        </mxCell>
        <mxCell id="NSyCwPkIbxhuFNTUXFhv-23" value="[ELSE]" style="edgeStyle=orthogonalEdgeStyle;rounded=0;html=1;jettySize=auto;orthogonalLoop=1;fontSize=11;endArrow=block;endFill=0;endSize=8;strokeWidth=1;shadow=0;labelBackgroundColor=none;entryX=0.5;entryY=0;entryDx=0;entryDy=0;exitX=1;exitY=0.5;exitDx=0;exitDy=0;entryPerimeter=0;" edge="1" parent="NSyCwPkIbxhuFNTUXFhv-1" source="NSyCwPkIbxhuFNTUXFhv-22" target="Q7jsNJ7NT-Vp5cSRM-pd-1">
          <mxGeometry x="-0.7403" y="10" relative="1" as="geometry">
            <mxPoint as="offset" />
            <mxPoint x="-540" y="358" as="sourcePoint" />
            <mxPoint x="430" y="338" as="targetPoint" />
          </mxGeometry>
        </mxCell>
        <mxCell id="NSyCwPkIbxhuFNTUXFhv-25" value="" style="strokeWidth=2;html=1;shape=mxgraph.flowchart.start_2;whiteSpace=wrap;" vertex="1" parent="NSyCwPkIbxhuFNTUXFhv-1">
          <mxGeometry x="285" y="638" width="50" height="50" as="geometry" />
        </mxCell>
        <mxCell id="NSyCwPkIbxhuFNTUXFhv-26" value="" style="ellipse;whiteSpace=wrap;html=1;aspect=fixed;fillColor=#000000;" vertex="1" parent="NSyCwPkIbxhuFNTUXFhv-1">
          <mxGeometry x="295" y="648" width="30" height="30" as="geometry" />
        </mxCell>
        <mxCell id="NSyCwPkIbxhuFNTUXFhv-27" value="" style="rounded=0;html=1;jettySize=auto;orthogonalLoop=1;fontSize=11;endArrow=block;endFill=0;endSize=8;strokeWidth=1;shadow=0;labelBackgroundColor=none;edgeStyle=orthogonalEdgeStyle;entryX=0.5;entryY=0;entryDx=0;entryDy=0;exitX=0.5;exitY=1;exitDx=0;exitDy=0;entryPerimeter=0;" edge="1" parent="NSyCwPkIbxhuFNTUXFhv-1" source="NSyCwPkIbxhuFNTUXFhv-13" target="NSyCwPkIbxhuFNTUXFhv-25">
          <mxGeometry relative="1" as="geometry">
            <mxPoint x="330" y="488" as="sourcePoint" />
            <mxPoint x="330" y="568" as="targetPoint" />
          </mxGeometry>
        </mxCell>
        <mxCell id="Q7jsNJ7NT-Vp5cSRM-pd-0" value="" style="rounded=0;html=1;jettySize=auto;orthogonalLoop=1;fontSize=11;endArrow=block;endFill=0;endSize=8;strokeWidth=1;shadow=0;labelBackgroundColor=none;edgeStyle=orthogonalEdgeStyle;exitX=0;exitY=0.5;exitDx=0;exitDy=0;entryX=0.5;entryY=0;entryDx=0;entryDy=0;" edge="1" parent="NSyCwPkIbxhuFNTUXFhv-1" source="NSyCwPkIbxhuFNTUXFhv-22" target="NSyCwPkIbxhuFNTUXFhv-8">
          <mxGeometry relative="1" as="geometry">
            <mxPoint x="335" y="208" as="sourcePoint" />
            <mxPoint x="170" y="278" as="targetPoint" />
            <Array as="points">
              <mxPoint x="170" y="278" />
            </Array>
          </mxGeometry>
        </mxCell>
        <mxCell id="Q7jsNJ7NT-Vp5cSRM-pd-1" value="" style="verticalLabelPosition=bottom;verticalAlign=top;html=1;shape=mxgraph.flowchart.or;" vertex="1" parent="NSyCwPkIbxhuFNTUXFhv-1">
          <mxGeometry x="410" y="387" width="30" height="30" as="geometry" />
        </mxCell>
        <mxCell id="Q7jsNJ7NT-Vp5cSRM-pd-2" value="Soumettre le formulaire" style="rounded=1;whiteSpace=wrap;html=1;fontSize=12;glass=0;strokeWidth=1;shadow=0;align=center;" vertex="1" parent="NSyCwPkIbxhuFNTUXFhv-1">
          <mxGeometry x="110" y="382" width="120" height="40" as="geometry" />
        </mxCell>
        <mxCell id="Q7jsNJ7NT-Vp5cSRM-pd-4" value="" style="rounded=0;html=1;jettySize=auto;orthogonalLoop=1;fontSize=11;endArrow=block;endFill=0;endSize=8;strokeWidth=1;shadow=0;labelBackgroundColor=none;edgeStyle=orthogonalEdgeStyle;exitX=0.5;exitY=1;exitDx=0;exitDy=0;entryX=0.5;entryY=0;entryDx=0;entryDy=0;" edge="1" parent="NSyCwPkIbxhuFNTUXFhv-1" source="NSyCwPkIbxhuFNTUXFhv-8" target="Q7jsNJ7NT-Vp5cSRM-pd-2">
          <mxGeometry relative="1" as="geometry">
            <mxPoint x="280" y="288" as="sourcePoint" />
            <mxPoint x="180" y="318" as="targetPoint" />
          </mxGeometry>
        </mxCell>
        <mxCell id="Q7jsNJ7NT-Vp5cSRM-pd-6" value="La demande est acceptée ?" style="rhombus;whiteSpace=wrap;html=1;shadow=0;fontFamily=Helvetica;fontSize=12;align=center;strokeWidth=1;spacing=6;spacingTop=-4;" vertex="1" parent="NSyCwPkIbxhuFNTUXFhv-1">
          <mxGeometry x="686.25" y="488" width="97.5" height="100" as="geometry" />
        </mxCell>
        <mxCell id="Q7jsNJ7NT-Vp5cSRM-pd-8" value="" style="rounded=0;html=1;jettySize=auto;orthogonalLoop=1;fontSize=11;endArrow=block;endFill=0;endSize=8;strokeWidth=1;shadow=0;labelBackgroundColor=none;edgeStyle=orthogonalEdgeStyle;entryX=0.5;entryY=0;entryDx=0;entryDy=0;exitX=0.5;exitY=1;exitDx=0;exitDy=0;" edge="1" parent="NSyCwPkIbxhuFNTUXFhv-1" source="Q7jsNJ7NT-Vp5cSRM-pd-2" target="Q7jsNJ7NT-Vp5cSRM-pd-6">
          <mxGeometry relative="1" as="geometry">
            <mxPoint x="320" y="534" as="sourcePoint" />
            <mxPoint x="320" y="558" as="targetPoint" />
            <Array as="points">
              <mxPoint x="170" y="448" />
              <mxPoint x="735" y="448" />
            </Array>
          </mxGeometry>
        </mxCell>
        <mxCell id="Q7jsNJ7NT-Vp5cSRM-pd-11" value="[ELSE]" style="edgeStyle=orthogonalEdgeStyle;rounded=0;html=1;jettySize=auto;orthogonalLoop=1;fontSize=11;endArrow=block;endFill=0;endSize=8;strokeWidth=1;shadow=0;labelBackgroundColor=none;exitX=1;exitY=0.5;exitDx=0;exitDy=0;entryX=0.5;entryY=0;entryDx=0;entryDy=0;entryPerimeter=0;" edge="1" parent="NSyCwPkIbxhuFNTUXFhv-1" source="Q7jsNJ7NT-Vp5cSRM-pd-6" target="Q7jsNJ7NT-Vp5cSRM-pd-12">
          <mxGeometry x="-0.3576" y="10" relative="1" as="geometry">
            <mxPoint as="offset" />
            <mxPoint x="280" y="608" as="sourcePoint" />
            <mxPoint x="600" y="588" as="targetPoint" />
            <Array as="points">
              <mxPoint x="870" y="538" />
              <mxPoint x="870" y="658" />
            </Array>
          </mxGeometry>
        </mxCell>
        <mxCell id="Q7jsNJ7NT-Vp5cSRM-pd-12" value="" style="verticalLabelPosition=bottom;verticalAlign=top;html=1;shape=mxgraph.flowchart.or;" vertex="1" parent="NSyCwPkIbxhuFNTUXFhv-1">
          <mxGeometry x="850" y="658" width="40" height="40" as="geometry" />
        </mxCell>
        <mxCell id="Q7jsNJ7NT-Vp5cSRM-pd-14" value="&lt;h1 style=&quot;margin-top: 0px;&quot;&gt;Gérant&lt;/h1&gt;" style="text;html=1;whiteSpace=wrap;overflow=hidden;rounded=0;" vertex="1" parent="NSyCwPkIbxhuFNTUXFhv-1">
          <mxGeometry x="783.75" y="28" width="86.25" height="40" as="geometry" />
        </mxCell>
        <mxCell id="Q7jsNJ7NT-Vp5cSRM-pd-15" value="" style="rounded=0;html=1;jettySize=auto;orthogonalLoop=1;fontSize=11;endArrow=block;endFill=0;endSize=8;strokeWidth=1;shadow=0;labelBackgroundColor=none;edgeStyle=orthogonalEdgeStyle;exitX=0;exitY=0.5;exitDx=0;exitDy=0;entryX=1;entryY=0.5;entryDx=0;entryDy=0;" edge="1" parent="NSyCwPkIbxhuFNTUXFhv-1" source="Q7jsNJ7NT-Vp5cSRM-pd-6" target="NSyCwPkIbxhuFNTUXFhv-13">
          <mxGeometry relative="1" as="geometry">
            <mxPoint x="280" y="288" as="sourcePoint" />
            <mxPoint x="180" y="318" as="targetPoint" />
            <Array as="points">
              <mxPoint x="686" y="541" />
            </Array>
          </mxGeometry>
        </mxCell>
        <mxCell id="Q7jsNJ7NT-Vp5cSRM-pd-16" value="Propose au client de devenir &quot;client privilégié&quot;" style="rounded=1;whiteSpace=wrap;html=1;fontSize=12;glass=0;strokeWidth=1;shadow=0;align=center;" vertex="1" parent="NSyCwPkIbxhuFNTUXFhv-1">
          <mxGeometry x="766.88" y="188" width="120" height="40" as="geometry" />
        </mxCell>
        <mxCell id="Q7jsNJ7NT-Vp5cSRM-pd-17" value="" style="rounded=0;html=1;jettySize=auto;orthogonalLoop=1;fontSize=11;endArrow=block;endFill=0;endSize=8;strokeWidth=1;shadow=0;labelBackgroundColor=none;edgeStyle=orthogonalEdgeStyle;exitX=0;exitY=0.5;exitDx=0;exitDy=0;entryX=0.5;entryY=0;entryDx=0;entryDy=0;" edge="1" parent="NSyCwPkIbxhuFNTUXFhv-1" source="Q7jsNJ7NT-Vp5cSRM-pd-16" target="NSyCwPkIbxhuFNTUXFhv-22">
          <mxGeometry relative="1" as="geometry">
            <mxPoint x="335" y="208" as="sourcePoint" />
            <mxPoint x="335" y="248" as="targetPoint" />
          </mxGeometry>
        </mxCell>
        <mxCell id="Q7jsNJ7NT-Vp5cSRM-pd-18" value="" style="rounded=0;html=1;jettySize=auto;orthogonalLoop=1;fontSize=11;endArrow=block;endFill=0;endSize=8;strokeWidth=1;shadow=0;labelBackgroundColor=none;edgeStyle=orthogonalEdgeStyle;exitX=0.5;exitY=1;exitDx=0;exitDy=0;entryX=0.5;entryY=0;entryDx=0;entryDy=0;" edge="1" parent="NSyCwPkIbxhuFNTUXFhv-1" source="NSyCwPkIbxhuFNTUXFhv-7" target="Q7jsNJ7NT-Vp5cSRM-pd-16">
          <mxGeometry relative="1" as="geometry">
            <mxPoint x="777" y="218" as="sourcePoint" />
            <mxPoint x="335" y="248" as="targetPoint" />
          </mxGeometry>
        </mxCell>
      </root>
    </mxGraphModel>
  </diagram>
  <diagram name="Participation à une vente pour le client privilégié" id="q8AOGBDST63tYl1mT5Ui">
    <mxGraphModel dx="1434" dy="779" grid="1" gridSize="10" guides="1" tooltips="1" connect="1" arrows="1" fold="1" page="1" pageScale="1" pageWidth="1169" pageHeight="827" math="0" shadow="0">
      <root>
        <mxCell id="CYYix6WIBG7_2akeJuhS-0" />
        <mxCell id="CYYix6WIBG7_2akeJuhS-1" parent="CYYix6WIBG7_2akeJuhS-0" />
        <mxCell id="CYYix6WIBG7_2akeJuhS-3" value="&lt;h1 style=&quot;margin-top: 0px;&quot;&gt;Client&lt;/h1&gt;" style="text;html=1;whiteSpace=wrap;overflow=hidden;rounded=0;" vertex="1" parent="CYYix6WIBG7_2akeJuhS-1">
          <mxGeometry x="545" y="30" width="70" height="40" as="geometry" />
        </mxCell>
        <mxCell id="CYYix6WIBG7_2akeJuhS-4" value="" style="ellipse;whiteSpace=wrap;html=1;aspect=fixed;fillColor=#000000;" vertex="1" parent="CYYix6WIBG7_2akeJuhS-1">
          <mxGeometry x="565" y="100" width="30" height="30" as="geometry" />
        </mxCell>
        <mxCell id="CYYix6WIBG7_2akeJuhS-15" value="" style="rounded=0;html=1;jettySize=auto;orthogonalLoop=1;fontSize=11;endArrow=block;endFill=0;endSize=8;strokeWidth=1;shadow=0;labelBackgroundColor=none;edgeStyle=orthogonalEdgeStyle;exitX=0.5;exitY=1;exitDx=0;exitDy=0;entryX=0.5;entryY=0;entryDx=0;entryDy=0;" edge="1" parent="CYYix6WIBG7_2akeJuhS-1" source="CYYix6WIBG7_2akeJuhS-22" target="rdSWj0ylBFzONK91y3xW-0">
          <mxGeometry relative="1" as="geometry">
            <mxPoint x="100" y="524" as="sourcePoint" />
            <mxPoint x="100" y="558" as="targetPoint" />
            <Array as="points">
              <mxPoint x="580" y="240" />
              <mxPoint x="580" y="240" />
            </Array>
          </mxGeometry>
        </mxCell>
        <mxCell id="CYYix6WIBG7_2akeJuhS-22" value="Recevoir un email personnalisé" style="rounded=1;whiteSpace=wrap;html=1;fontSize=12;glass=0;strokeWidth=1;shadow=0;align=center;" vertex="1" parent="CYYix6WIBG7_2akeJuhS-1">
          <mxGeometry x="520" y="170" width="120" height="40" as="geometry" />
        </mxCell>
        <mxCell id="CYYix6WIBG7_2akeJuhS-24" value="" style="rounded=0;html=1;jettySize=auto;orthogonalLoop=1;fontSize=11;endArrow=block;endFill=0;endSize=8;strokeWidth=1;shadow=0;labelBackgroundColor=none;edgeStyle=orthogonalEdgeStyle;exitX=0.5;exitY=1;exitDx=0;exitDy=0;entryX=0.5;entryY=0;entryDx=0;entryDy=0;" edge="1" parent="CYYix6WIBG7_2akeJuhS-1" source="CYYix6WIBG7_2akeJuhS-4" target="CYYix6WIBG7_2akeJuhS-22">
          <mxGeometry relative="1" as="geometry">
            <mxPoint x="777" y="218" as="sourcePoint" />
            <mxPoint x="335" y="248" as="targetPoint" />
          </mxGeometry>
        </mxCell>
        <mxCell id="rdSWj0ylBFzONK91y3xW-0" value="Consulter la vente" style="rounded=1;whiteSpace=wrap;html=1;fontSize=12;glass=0;strokeWidth=1;shadow=0;align=center;" vertex="1" parent="CYYix6WIBG7_2akeJuhS-1">
          <mxGeometry x="520" y="258" width="120" height="40" as="geometry" />
        </mxCell>
        <mxCell id="rdSWj0ylBFzONK91y3xW-1" value="S&#39;inscrire ?" style="rhombus;whiteSpace=wrap;html=1;shadow=0;fontFamily=Helvetica;fontSize=12;align=center;strokeWidth=1;spacing=6;spacingTop=-4;" vertex="1" parent="CYYix6WIBG7_2akeJuhS-1">
          <mxGeometry x="535.63" y="340" width="88.75" height="88" as="geometry" />
        </mxCell>
        <mxCell id="rdSWj0ylBFzONK91y3xW-3" value="Consulter les produits" style="rounded=1;whiteSpace=wrap;html=1;fontSize=12;glass=0;strokeWidth=1;shadow=0;align=center;" vertex="1" parent="CYYix6WIBG7_2akeJuhS-1">
          <mxGeometry x="400" y="454" width="130" height="40" as="geometry" />
        </mxCell>
        <mxCell id="rdSWj0ylBFzONK91y3xW-4" value="" style="verticalLabelPosition=bottom;verticalAlign=top;html=1;shape=mxgraph.flowchart.or;" vertex="1" parent="CYYix6WIBG7_2akeJuhS-1">
          <mxGeometry x="690" y="464" width="30" height="30" as="geometry" />
        </mxCell>
        <mxCell id="rdSWj0ylBFzONK91y3xW-5" value="Choisir les produits" style="rounded=1;whiteSpace=wrap;html=1;fontSize=12;glass=0;strokeWidth=1;shadow=0;align=center;" vertex="1" parent="CYYix6WIBG7_2akeJuhS-1">
          <mxGeometry x="400" y="540" width="130" height="40" as="geometry" />
        </mxCell>
        <mxCell id="rdSWj0ylBFzONK91y3xW-6" value="Procéder au paiement" style="rounded=1;whiteSpace=wrap;html=1;fontSize=12;glass=0;strokeWidth=1;shadow=0;align=center;" vertex="1" parent="CYYix6WIBG7_2akeJuhS-1">
          <mxGeometry x="400" y="630" width="130" height="40" as="geometry" />
        </mxCell>
        <mxCell id="rdSWj0ylBFzONK91y3xW-7" value="" style="rounded=0;html=1;jettySize=auto;orthogonalLoop=1;fontSize=11;endArrow=block;endFill=0;endSize=8;strokeWidth=1;shadow=0;labelBackgroundColor=none;edgeStyle=orthogonalEdgeStyle;exitX=0.5;exitY=1;exitDx=0;exitDy=0;entryX=0.5;entryY=0;entryDx=0;entryDy=0;" edge="1" parent="CYYix6WIBG7_2akeJuhS-1" source="rdSWj0ylBFzONK91y3xW-0" target="rdSWj0ylBFzONK91y3xW-1">
          <mxGeometry relative="1" as="geometry">
            <mxPoint x="590" y="220" as="sourcePoint" />
            <mxPoint x="590" y="268" as="targetPoint" />
            <Array as="points">
              <mxPoint x="580" y="320" />
              <mxPoint x="580" y="320" />
            </Array>
          </mxGeometry>
        </mxCell>
        <mxCell id="rdSWj0ylBFzONK91y3xW-8" value="[ELSE]" style="edgeStyle=orthogonalEdgeStyle;rounded=0;html=1;jettySize=auto;orthogonalLoop=1;fontSize=11;endArrow=block;endFill=0;endSize=8;strokeWidth=1;shadow=0;labelBackgroundColor=none;entryX=0.5;entryY=0;entryDx=0;entryDy=0;exitX=1;exitY=0.5;exitDx=0;exitDy=0;entryPerimeter=0;" edge="1" parent="CYYix6WIBG7_2akeJuhS-1" source="rdSWj0ylBFzONK91y3xW-1" target="rdSWj0ylBFzONK91y3xW-4">
          <mxGeometry x="-0.7403" y="10" relative="1" as="geometry">
            <mxPoint as="offset" />
            <mxPoint x="320" y="464" as="sourcePoint" />
            <mxPoint x="365" y="573" as="targetPoint" />
          </mxGeometry>
        </mxCell>
        <mxCell id="rdSWj0ylBFzONK91y3xW-9" value="" style="rounded=0;html=1;jettySize=auto;orthogonalLoop=1;fontSize=11;endArrow=block;endFill=0;endSize=8;strokeWidth=1;shadow=0;labelBackgroundColor=none;edgeStyle=orthogonalEdgeStyle;exitX=0;exitY=0.5;exitDx=0;exitDy=0;entryX=0.5;entryY=0;entryDx=0;entryDy=0;" edge="1" parent="CYYix6WIBG7_2akeJuhS-1" source="rdSWj0ylBFzONK91y3xW-1" target="rdSWj0ylBFzONK91y3xW-3">
          <mxGeometry relative="1" as="geometry">
            <mxPoint x="210" y="464" as="sourcePoint" />
            <mxPoint x="110" y="494" as="targetPoint" />
            <Array as="points">
              <mxPoint x="536" y="430" />
              <mxPoint x="465" y="430" />
            </Array>
          </mxGeometry>
        </mxCell>
        <mxCell id="rdSWj0ylBFzONK91y3xW-11" value="" style="rounded=0;html=1;jettySize=auto;orthogonalLoop=1;fontSize=11;endArrow=block;endFill=0;endSize=8;strokeWidth=1;shadow=0;labelBackgroundColor=none;edgeStyle=orthogonalEdgeStyle;exitX=0.5;exitY=1;exitDx=0;exitDy=0;entryX=0.5;entryY=0;entryDx=0;entryDy=0;" edge="1" parent="CYYix6WIBG7_2akeJuhS-1" source="rdSWj0ylBFzONK91y3xW-3" target="rdSWj0ylBFzONK91y3xW-5">
          <mxGeometry relative="1" as="geometry">
            <mxPoint x="590" y="308" as="sourcePoint" />
            <mxPoint x="590" y="350" as="targetPoint" />
            <Array as="points">
              <mxPoint x="465" y="540" />
            </Array>
          </mxGeometry>
        </mxCell>
        <mxCell id="rdSWj0ylBFzONK91y3xW-12" value="" style="rounded=0;html=1;jettySize=auto;orthogonalLoop=1;fontSize=11;endArrow=block;endFill=0;endSize=8;strokeWidth=1;shadow=0;labelBackgroundColor=none;edgeStyle=orthogonalEdgeStyle;exitX=0.5;exitY=1;exitDx=0;exitDy=0;entryX=0.515;entryY=0.01;entryDx=0;entryDy=0;entryPerimeter=0;" edge="1" parent="CYYix6WIBG7_2akeJuhS-1" source="rdSWj0ylBFzONK91y3xW-5" target="rdSWj0ylBFzONK91y3xW-6">
          <mxGeometry relative="1" as="geometry">
            <mxPoint x="475" y="504" as="sourcePoint" />
            <mxPoint x="475" y="550" as="targetPoint" />
            <Array as="points">
              <mxPoint x="467" y="580" />
            </Array>
          </mxGeometry>
        </mxCell>
        <mxCell id="rdSWj0ylBFzONK91y3xW-14" value="" style="strokeWidth=2;html=1;shape=mxgraph.flowchart.start_2;whiteSpace=wrap;" vertex="1" parent="CYYix6WIBG7_2akeJuhS-1">
          <mxGeometry x="440" y="710" width="50" height="50" as="geometry" />
        </mxCell>
        <mxCell id="rdSWj0ylBFzONK91y3xW-15" value="" style="ellipse;whiteSpace=wrap;html=1;aspect=fixed;fillColor=#000000;" vertex="1" parent="CYYix6WIBG7_2akeJuhS-1">
          <mxGeometry x="450" y="720" width="30" height="30" as="geometry" />
        </mxCell>
        <mxCell id="rdSWj0ylBFzONK91y3xW-16" value="" style="rounded=0;html=1;jettySize=auto;orthogonalLoop=1;fontSize=11;endArrow=block;endFill=0;endSize=8;strokeWidth=1;shadow=0;labelBackgroundColor=none;edgeStyle=orthogonalEdgeStyle;entryX=0.5;entryY=0;entryDx=0;entryDy=0;exitX=0.5;exitY=1;exitDx=0;exitDy=0;entryPerimeter=0;" edge="1" parent="CYYix6WIBG7_2akeJuhS-1" source="rdSWj0ylBFzONK91y3xW-6" target="rdSWj0ylBFzONK91y3xW-14">
          <mxGeometry relative="1" as="geometry">
            <mxPoint x="250" y="750" as="sourcePoint" />
            <mxPoint x="250" y="824" as="targetPoint" />
          </mxGeometry>
        </mxCell>
      </root>
    </mxGraphModel>
  </diagram>
  <diagram id="OxfvHWhrUWdT2qOvX5V2" name="Diagramme de classe (Métier)">
    <mxGraphModel dx="1434" dy="779" grid="1" gridSize="10" guides="1" tooltips="1" connect="1" arrows="1" fold="1" page="1" pageScale="1" pageWidth="1169" pageHeight="827" math="0" shadow="0">
      <root>
        <mxCell id="0" />
        <mxCell id="1" parent="0" />
        <mxCell id="93BLzC_JP5Mq4jMxd7xp-4" value="Fournisseur" style="swimlane;fontStyle=1;align=center;verticalAlign=top;childLayout=stackLayout;horizontal=1;startSize=26;horizontalStack=0;resizeParent=1;resizeParentMax=0;resizeLast=0;collapsible=1;marginBottom=0;whiteSpace=wrap;html=1;" vertex="1" parent="1">
          <mxGeometry x="757" y="310" width="150" height="160" as="geometry" />
        </mxCell>
        <mxCell id="93BLzC_JP5Mq4jMxd7xp-5" value="+ spécialité&lt;div&gt;+ typeMatériel&lt;/div&gt;&lt;div&gt;+ ventes&lt;/div&gt;" style="text;strokeColor=none;fillColor=none;align=left;verticalAlign=top;spacingLeft=4;spacingRight=4;overflow=hidden;rotatable=0;points=[[0,0.5],[1,0.5]];portConstraint=eastwest;whiteSpace=wrap;html=1;" vertex="1" parent="93BLzC_JP5Mq4jMxd7xp-4">
          <mxGeometry y="26" width="150" height="84" as="geometry" />
        </mxCell>
        <mxCell id="93BLzC_JP5Mq4jMxd7xp-6" value="" style="line;strokeWidth=1;fillColor=none;align=left;verticalAlign=middle;spacingTop=-1;spacingLeft=3;spacingRight=3;rotatable=0;labelPosition=right;points=[];portConstraint=eastwest;strokeColor=inherit;" vertex="1" parent="93BLzC_JP5Mq4jMxd7xp-4">
          <mxGeometry y="110" width="150" height="50" as="geometry" />
        </mxCell>
        <mxCell id="93BLzC_JP5Mq4jMxd7xp-8" value="Personne" style="swimlane;fontStyle=1;align=center;verticalAlign=top;childLayout=stackLayout;horizontal=1;startSize=26;horizontalStack=0;resizeParent=1;resizeParentMax=0;resizeLast=0;collapsible=1;marginBottom=0;whiteSpace=wrap;html=1;" vertex="1" parent="1">
          <mxGeometry x="757" y="70" width="150" height="160" as="geometry" />
        </mxCell>
        <mxCell id="93BLzC_JP5Mq4jMxd7xp-9" value="&lt;div&gt;+ nom&lt;/div&gt;&lt;div&gt;+ adresse&lt;/div&gt;&lt;div&gt;+ mail&lt;/div&gt;&lt;div&gt;+ téléphone&lt;/div&gt;" style="text;strokeColor=none;fillColor=none;align=left;verticalAlign=top;spacingLeft=4;spacingRight=4;overflow=hidden;rotatable=0;points=[[0,0.5],[1,0.5]];portConstraint=eastwest;whiteSpace=wrap;html=1;" vertex="1" parent="93BLzC_JP5Mq4jMxd7xp-8">
          <mxGeometry y="26" width="150" height="84" as="geometry" />
        </mxCell>
        <mxCell id="93BLzC_JP5Mq4jMxd7xp-10" value="" style="line;strokeWidth=1;fillColor=none;align=left;verticalAlign=middle;spacingTop=-1;spacingLeft=3;spacingRight=3;rotatable=0;labelPosition=right;points=[];portConstraint=eastwest;strokeColor=inherit;" vertex="1" parent="93BLzC_JP5Mq4jMxd7xp-8">
          <mxGeometry y="110" width="150" height="50" as="geometry" />
        </mxCell>
        <mxCell id="93BLzC_JP5Mq4jMxd7xp-17" value="Gérant" style="swimlane;fontStyle=1;align=center;verticalAlign=top;childLayout=stackLayout;horizontal=1;startSize=26;horizontalStack=0;resizeParent=1;resizeParentMax=0;resizeLast=0;collapsible=1;marginBottom=0;whiteSpace=wrap;html=1;" vertex="1" parent="1">
          <mxGeometry x="557" y="310" width="150" height="76" as="geometry" />
        </mxCell>
        <mxCell id="93BLzC_JP5Mq4jMxd7xp-18" value="" style="line;strokeWidth=1;fillColor=none;align=left;verticalAlign=middle;spacingTop=-1;spacingLeft=3;spacingRight=3;rotatable=0;labelPosition=right;points=[];portConstraint=eastwest;strokeColor=inherit;" vertex="1" parent="93BLzC_JP5Mq4jMxd7xp-17">
          <mxGeometry y="26" width="150" height="50" as="geometry" />
        </mxCell>
        <mxCell id="93BLzC_JP5Mq4jMxd7xp-21" value="Vente" style="swimlane;fontStyle=1;align=center;verticalAlign=top;childLayout=stackLayout;horizontal=1;startSize=26;horizontalStack=0;resizeParent=1;resizeParentMax=0;resizeLast=0;collapsible=1;marginBottom=0;whiteSpace=wrap;html=1;" vertex="1" parent="1">
          <mxGeometry x="302" y="310" width="150" height="160" as="geometry" />
        </mxCell>
        <mxCell id="93BLzC_JP5Mq4jMxd7xp-22" value="&lt;div&gt;+ nom&lt;/div&gt;&lt;div&gt;+ dateDébut&lt;/div&gt;&lt;div&gt;+ dateFin&lt;/div&gt;&lt;div&gt;+ activités&lt;/div&gt;&lt;div&gt;+ descriptif&lt;/div&gt;" style="text;strokeColor=none;fillColor=none;align=left;verticalAlign=top;spacingLeft=4;spacingRight=4;overflow=hidden;rotatable=0;points=[[0,0.5],[1,0.5]];portConstraint=eastwest;whiteSpace=wrap;html=1;" vertex="1" parent="93BLzC_JP5Mq4jMxd7xp-21">
          <mxGeometry y="26" width="150" height="84" as="geometry" />
        </mxCell>
        <mxCell id="93BLzC_JP5Mq4jMxd7xp-23" value="" style="line;strokeWidth=1;fillColor=none;align=left;verticalAlign=middle;spacingTop=-1;spacingLeft=3;spacingRight=3;rotatable=0;labelPosition=right;points=[];portConstraint=eastwest;strokeColor=inherit;" vertex="1" parent="93BLzC_JP5Mq4jMxd7xp-21">
          <mxGeometry y="110" width="150" height="50" as="geometry" />
        </mxCell>
        <mxCell id="93BLzC_JP5Mq4jMxd7xp-25" value="Produit" style="swimlane;fontStyle=1;align=center;verticalAlign=top;childLayout=stackLayout;horizontal=1;startSize=26;horizontalStack=0;resizeParent=1;resizeParentMax=0;resizeLast=0;collapsible=1;marginBottom=0;whiteSpace=wrap;html=1;" vertex="1" parent="1">
          <mxGeometry x="67" y="310" width="150" height="178" as="geometry" />
        </mxCell>
        <mxCell id="93BLzC_JP5Mq4jMxd7xp-26" value="&lt;div&gt;+ nom&lt;/div&gt;&lt;div&gt;+ description&lt;/div&gt;&lt;div&gt;+ photo&lt;/div&gt;&lt;div&gt;+ prixBase&lt;/div&gt;&lt;div&gt;+ prixVente&lt;/div&gt;&lt;div&gt;+ taille&lt;/div&gt;" style="text;strokeColor=none;fillColor=none;align=left;verticalAlign=top;spacingLeft=4;spacingRight=4;overflow=hidden;rotatable=0;points=[[0,0.5],[1,0.5]];portConstraint=eastwest;whiteSpace=wrap;html=1;" vertex="1" parent="93BLzC_JP5Mq4jMxd7xp-25">
          <mxGeometry y="26" width="150" height="102" as="geometry" />
        </mxCell>
        <mxCell id="93BLzC_JP5Mq4jMxd7xp-27" value="" style="line;strokeWidth=1;fillColor=none;align=left;verticalAlign=middle;spacingTop=-1;spacingLeft=3;spacingRight=3;rotatable=0;labelPosition=right;points=[];portConstraint=eastwest;strokeColor=inherit;" vertex="1" parent="93BLzC_JP5Mq4jMxd7xp-25">
          <mxGeometry y="128" width="150" height="50" as="geometry" />
        </mxCell>
        <mxCell id="93BLzC_JP5Mq4jMxd7xp-29" value="ClientPrivilégié" style="swimlane;fontStyle=1;align=center;verticalAlign=top;childLayout=stackLayout;horizontal=1;startSize=26;horizontalStack=0;resizeParent=1;resizeParentMax=0;resizeLast=0;collapsible=1;marginBottom=0;whiteSpace=wrap;html=1;" vertex="1" parent="1">
          <mxGeometry x="952" y="510" width="150" height="150" as="geometry" />
        </mxCell>
        <mxCell id="93BLzC_JP5Mq4jMxd7xp-30" value="+ activités" style="text;strokeColor=none;fillColor=none;align=left;verticalAlign=top;spacingLeft=4;spacingRight=4;overflow=hidden;rotatable=0;points=[[0,0.5],[1,0.5]];portConstraint=eastwest;whiteSpace=wrap;html=1;" vertex="1" parent="93BLzC_JP5Mq4jMxd7xp-29">
          <mxGeometry y="26" width="150" height="44" as="geometry" />
        </mxCell>
        <mxCell id="93BLzC_JP5Mq4jMxd7xp-31" value="" style="line;strokeWidth=1;fillColor=none;align=left;verticalAlign=middle;spacingTop=-1;spacingLeft=3;spacingRight=3;rotatable=0;labelPosition=right;points=[];portConstraint=eastwest;strokeColor=inherit;" vertex="1" parent="93BLzC_JP5Mq4jMxd7xp-29">
          <mxGeometry y="70" width="150" height="80" as="geometry" />
        </mxCell>
        <mxCell id="93BLzC_JP5Mq4jMxd7xp-33" value="Client" style="swimlane;fontStyle=1;align=center;verticalAlign=top;childLayout=stackLayout;horizontal=1;startSize=26;horizontalStack=0;resizeParent=1;resizeParentMax=0;resizeLast=0;collapsible=1;marginBottom=0;whiteSpace=wrap;html=1;" vertex="1" parent="1">
          <mxGeometry x="952" y="310" width="150" height="160" as="geometry" />
        </mxCell>
        <mxCell id="93BLzC_JP5Mq4jMxd7xp-34" value="&lt;div&gt;+ prénom&lt;br&gt;&lt;/div&gt;" style="text;strokeColor=none;fillColor=none;align=left;verticalAlign=top;spacingLeft=4;spacingRight=4;overflow=hidden;rotatable=0;points=[[0,0.5],[1,0.5]];portConstraint=eastwest;whiteSpace=wrap;html=1;" vertex="1" parent="93BLzC_JP5Mq4jMxd7xp-33">
          <mxGeometry y="26" width="150" height="84" as="geometry" />
        </mxCell>
        <mxCell id="93BLzC_JP5Mq4jMxd7xp-35" value="" style="line;strokeWidth=1;fillColor=none;align=left;verticalAlign=middle;spacingTop=-1;spacingLeft=3;spacingRight=3;rotatable=0;labelPosition=right;points=[];portConstraint=eastwest;strokeColor=inherit;" vertex="1" parent="93BLzC_JP5Mq4jMxd7xp-33">
          <mxGeometry y="110" width="150" height="50" as="geometry" />
        </mxCell>
        <mxCell id="93BLzC_JP5Mq4jMxd7xp-36" value="LigneDeVente" style="swimlane;fontStyle=1;align=center;verticalAlign=top;childLayout=stackLayout;horizontal=1;startSize=26;horizontalStack=0;resizeParent=1;resizeParentMax=0;resizeLast=0;collapsible=1;marginBottom=0;whiteSpace=wrap;html=1;" vertex="1" parent="1">
          <mxGeometry x="67" y="568" width="150" height="160" as="geometry" />
        </mxCell>
        <mxCell id="93BLzC_JP5Mq4jMxd7xp-37" value="&lt;div&gt;+ quantité&lt;/div&gt;" style="text;strokeColor=none;fillColor=none;align=left;verticalAlign=top;spacingLeft=4;spacingRight=4;overflow=hidden;rotatable=0;points=[[0,0.5],[1,0.5]];portConstraint=eastwest;whiteSpace=wrap;html=1;" vertex="1" parent="93BLzC_JP5Mq4jMxd7xp-36">
          <mxGeometry y="26" width="150" height="84" as="geometry" />
        </mxCell>
        <mxCell id="93BLzC_JP5Mq4jMxd7xp-38" value="" style="line;strokeWidth=1;fillColor=none;align=left;verticalAlign=middle;spacingTop=-1;spacingLeft=3;spacingRight=3;rotatable=0;labelPosition=right;points=[];portConstraint=eastwest;strokeColor=inherit;" vertex="1" parent="93BLzC_JP5Mq4jMxd7xp-36">
          <mxGeometry y="110" width="150" height="50" as="geometry" />
        </mxCell>
        <mxCell id="fhf3399KomwWrtL-OIQv-1" value="" style="endArrow=block;html=1;rounded=0;entryX=0.5;entryY=1;entryDx=0;entryDy=0;exitX=0.5;exitY=0;exitDx=0;exitDy=0;endFill=0;" edge="1" parent="1" source="93BLzC_JP5Mq4jMxd7xp-29" target="93BLzC_JP5Mq4jMxd7xp-33">
          <mxGeometry width="50" height="50" relative="1" as="geometry">
            <mxPoint x="805" y="451" as="sourcePoint" />
            <mxPoint x="855" y="401" as="targetPoint" />
          </mxGeometry>
        </mxCell>
        <mxCell id="fhf3399KomwWrtL-OIQv-2" value="" style="endArrow=block;html=1;rounded=0;entryX=0.75;entryY=1;entryDx=0;entryDy=0;exitX=0.5;exitY=0;exitDx=0;exitDy=0;endFill=0;" edge="1" parent="1" source="93BLzC_JP5Mq4jMxd7xp-33" target="93BLzC_JP5Mq4jMxd7xp-8">
          <mxGeometry width="50" height="50" relative="1" as="geometry">
            <mxPoint x="1037" y="520" as="sourcePoint" />
            <mxPoint x="1037" y="480" as="targetPoint" />
            <Array as="points">
              <mxPoint x="1027" y="288" />
              <mxPoint x="870" y="288" />
            </Array>
          </mxGeometry>
        </mxCell>
        <mxCell id="fhf3399KomwWrtL-OIQv-3" value="" style="endArrow=block;html=1;rounded=0;exitX=0.5;exitY=0;exitDx=0;exitDy=0;endFill=0;entryX=0.5;entryY=1;entryDx=0;entryDy=0;" edge="1" parent="1" source="93BLzC_JP5Mq4jMxd7xp-4" target="93BLzC_JP5Mq4jMxd7xp-8">
          <mxGeometry width="50" height="50" relative="1" as="geometry">
            <mxPoint x="1037" y="320" as="sourcePoint" />
            <mxPoint x="817" y="258" as="targetPoint" />
            <Array as="points" />
          </mxGeometry>
        </mxCell>
        <mxCell id="fhf3399KomwWrtL-OIQv-5" value="" style="endArrow=block;html=1;rounded=0;exitX=0.5;exitY=0;exitDx=0;exitDy=0;endFill=0;entryX=0.25;entryY=1;entryDx=0;entryDy=0;" edge="1" parent="1" source="93BLzC_JP5Mq4jMxd7xp-17" target="93BLzC_JP5Mq4jMxd7xp-8">
          <mxGeometry width="50" height="50" relative="1" as="geometry">
            <mxPoint x="842" y="320" as="sourcePoint" />
            <mxPoint x="842" y="240" as="targetPoint" />
            <Array as="points">
              <mxPoint x="632" y="258" />
              <mxPoint x="795" y="258" />
            </Array>
          </mxGeometry>
        </mxCell>
        <mxCell id="fhf3399KomwWrtL-OIQv-6" value="" style="endArrow=none;html=1;rounded=0;entryX=0;entryY=0.75;entryDx=0;entryDy=0;exitX=1;exitY=0.75;exitDx=0;exitDy=0;" edge="1" parent="1" source="93BLzC_JP5Mq4jMxd7xp-21" target="93BLzC_JP5Mq4jMxd7xp-4">
          <mxGeometry width="50" height="50" relative="1" as="geometry">
            <mxPoint x="767" y="538" as="sourcePoint" />
            <mxPoint x="817" y="488" as="targetPoint" />
          </mxGeometry>
        </mxCell>
        <mxCell id="fhf3399KomwWrtL-OIQv-7" value="1" style="text;html=1;align=center;verticalAlign=middle;whiteSpace=wrap;rounded=0;" vertex="1" parent="1">
          <mxGeometry x="467" y="416" width="25" height="10" as="geometry" />
        </mxCell>
        <mxCell id="fhf3399KomwWrtL-OIQv-8" value="*" style="text;html=1;align=center;verticalAlign=middle;whiteSpace=wrap;rounded=0;" vertex="1" parent="1">
          <mxGeometry x="727" y="418" width="25" height="10" as="geometry" />
        </mxCell>
        <mxCell id="fhf3399KomwWrtL-OIQv-9" value="" style="endArrow=none;html=1;rounded=0;entryX=0.5;entryY=1;entryDx=0;entryDy=0;exitX=0;exitY=0.5;exitDx=0;exitDy=0;" edge="1" parent="1" source="93BLzC_JP5Mq4jMxd7xp-29">
          <mxGeometry width="50" height="50" relative="1" as="geometry">
            <mxPoint x="937" y="585" as="sourcePoint" />
            <mxPoint x="637" y="386" as="targetPoint" />
            <Array as="points">
              <mxPoint x="637" y="585" />
            </Array>
          </mxGeometry>
        </mxCell>
        <mxCell id="fhf3399KomwWrtL-OIQv-10" value="*" style="text;html=1;align=center;verticalAlign=middle;whiteSpace=wrap;rounded=0;" vertex="1" parent="1">
          <mxGeometry x="640" y="391" width="25" height="10" as="geometry" />
        </mxCell>
        <mxCell id="fhf3399KomwWrtL-OIQv-11" value="1" style="text;html=1;align=center;verticalAlign=middle;whiteSpace=wrap;rounded=0;" vertex="1" parent="1">
          <mxGeometry x="917" y="568" width="25" height="10" as="geometry" />
        </mxCell>
        <mxCell id="fhf3399KomwWrtL-OIQv-12" value="" style="endArrow=none;html=1;rounded=0;entryX=0;entryY=0.5;entryDx=0;entryDy=0;exitX=1;exitY=0.5;exitDx=0;exitDy=0;" edge="1" parent="1" source="93BLzC_JP5Mq4jMxd7xp-22" target="93BLzC_JP5Mq4jMxd7xp-17">
          <mxGeometry width="50" height="50" relative="1" as="geometry">
            <mxPoint x="962" y="595" as="sourcePoint" />
            <mxPoint x="647" y="396" as="targetPoint" />
            <Array as="points" />
          </mxGeometry>
        </mxCell>
        <mxCell id="fhf3399KomwWrtL-OIQv-13" value="*" style="text;html=1;align=center;verticalAlign=middle;whiteSpace=wrap;rounded=0;" vertex="1" parent="1">
          <mxGeometry x="527" y="338" width="25" height="10" as="geometry" />
        </mxCell>
        <mxCell id="fhf3399KomwWrtL-OIQv-14" value="1" style="text;html=1;align=center;verticalAlign=middle;whiteSpace=wrap;rounded=0;" vertex="1" parent="1">
          <mxGeometry x="452" y="358" width="25" height="10" as="geometry" />
        </mxCell>
        <mxCell id="fhf3399KomwWrtL-OIQv-15" value="" style="endArrow=none;html=1;rounded=0;entryX=0.75;entryY=1;entryDx=0;entryDy=0;exitX=0;exitY=0.75;exitDx=0;exitDy=0;" edge="1" parent="1" source="93BLzC_JP5Mq4jMxd7xp-29" target="93BLzC_JP5Mq4jMxd7xp-21">
          <mxGeometry width="50" height="50" relative="1" as="geometry">
            <mxPoint x="462" y="388" as="sourcePoint" />
            <mxPoint x="567" y="358" as="targetPoint" />
            <Array as="points">
              <mxPoint x="415" y="623" />
            </Array>
          </mxGeometry>
        </mxCell>
        <mxCell id="fhf3399KomwWrtL-OIQv-16" value="*" style="text;html=1;align=center;verticalAlign=middle;whiteSpace=wrap;rounded=0;" vertex="1" parent="1">
          <mxGeometry x="917" y="630" width="25" height="10" as="geometry" />
        </mxCell>
        <mxCell id="fhf3399KomwWrtL-OIQv-17" value="*" style="text;html=1;align=center;verticalAlign=middle;whiteSpace=wrap;rounded=0;" vertex="1" parent="1">
          <mxGeometry x="410" y="478" width="25" height="10" as="geometry" />
        </mxCell>
        <mxCell id="fhf3399KomwWrtL-OIQv-18" value="" style="endArrow=none;html=1;rounded=0;entryX=0.5;entryY=0;entryDx=0;entryDy=0;exitX=0.5;exitY=1;exitDx=0;exitDy=0;" edge="1" parent="1" source="93BLzC_JP5Mq4jMxd7xp-25" target="93BLzC_JP5Mq4jMxd7xp-36">
          <mxGeometry width="50" height="50" relative="1" as="geometry">
            <mxPoint x="962" y="633" as="sourcePoint" />
            <mxPoint x="462" y="480" as="targetPoint" />
            <Array as="points" />
          </mxGeometry>
        </mxCell>
        <mxCell id="fhf3399KomwWrtL-OIQv-20" value="*" style="text;html=1;align=center;verticalAlign=middle;whiteSpace=wrap;rounded=0;" vertex="1" parent="1">
          <mxGeometry x="147" y="550" width="25" height="10" as="geometry" />
        </mxCell>
        <mxCell id="fhf3399KomwWrtL-OIQv-21" value="1" style="text;html=1;align=center;verticalAlign=middle;whiteSpace=wrap;rounded=0;" vertex="1" parent="1">
          <mxGeometry x="147" y="493" width="25" height="10" as="geometry" />
        </mxCell>
        <mxCell id="fhf3399KomwWrtL-OIQv-22" value="" style="endArrow=none;html=1;rounded=0;entryX=1.001;entryY=0.556;entryDx=0;entryDy=0;exitX=0.5;exitY=1;exitDx=0;exitDy=0;entryPerimeter=0;" edge="1" parent="1" source="93BLzC_JP5Mq4jMxd7xp-21" target="93BLzC_JP5Mq4jMxd7xp-37">
          <mxGeometry width="50" height="50" relative="1" as="geometry">
            <mxPoint x="152" y="498" as="sourcePoint" />
            <mxPoint x="152" y="570" as="targetPoint" />
            <Array as="points">
              <mxPoint x="377" y="640" />
            </Array>
          </mxGeometry>
        </mxCell>
        <mxCell id="fhf3399KomwWrtL-OIQv-23" value="1" style="text;html=1;align=center;verticalAlign=middle;whiteSpace=wrap;rounded=0;" vertex="1" parent="1">
          <mxGeometry x="347" y="478" width="25" height="10" as="geometry" />
        </mxCell>
        <mxCell id="fhf3399KomwWrtL-OIQv-24" value="*" style="text;html=1;align=center;verticalAlign=middle;whiteSpace=wrap;rounded=0;" vertex="1" parent="1">
          <mxGeometry x="227" y="620" width="25" height="10" as="geometry" />
        </mxCell>
      </root>
    </mxGraphModel>
  </diagram>
  <diagram name="Diagramme de classe participantes (Proposer vente)" id="zeyUaj5ORidZI64BdZX2">
    <mxGraphModel dx="1368" dy="936" grid="0" gridSize="10" guides="1" tooltips="1" connect="1" arrows="1" fold="1" page="1" pageScale="1" pageWidth="1169" pageHeight="827" math="0" shadow="0">
      <root>
        <mxCell id="haiJlXltbiNpEPmk4q8_-0" />
        <mxCell id="haiJlXltbiNpEPmk4q8_-1" parent="haiJlXltbiNpEPmk4q8_-0" />
        <mxCell id="haiJlXltbiNpEPmk4q8_-2" value="Fournisseur" style="swimlane;fontStyle=1;align=center;verticalAlign=top;childLayout=stackLayout;horizontal=1;startSize=26;horizontalStack=0;resizeParent=1;resizeParentMax=0;resizeLast=0;collapsible=1;marginBottom=0;whiteSpace=wrap;html=1;fontFamily=Helvetica;fontSize=12;" parent="haiJlXltbiNpEPmk4q8_-1" vertex="1">
          <mxGeometry x="815.25" y="37" width="241.5" height="229" as="geometry" />
        </mxCell>
        <mxCell id="haiJlXltbiNpEPmk4q8_-3" value="&lt;p style=&quot;margin: 0px; font-stretch: normal; font-size: 12px; line-height: normal; font-size-adjust: none; font-kerning: auto; font-variant-alternates: normal; font-variant-ligatures: normal; font-variant-numeric: normal; font-variant-east-asian: normal; font-variant-position: normal; font-feature-settings: normal; font-optical-sizing: auto; font-variation-settings: normal; color: rgb(12, 12, 12);&quot;&gt;- nom: String&lt;/p&gt;&lt;p style=&quot;margin: 0px; font-stretch: normal; font-size: 12px; line-height: normal; font-size-adjust: none; font-kerning: auto; font-variant-alternates: normal; font-variant-ligatures: normal; font-variant-numeric: normal; font-variant-east-asian: normal; font-variant-position: normal; font-feature-settings: normal; font-optical-sizing: auto; font-variation-settings: normal; color: rgb(12, 12, 12);&quot;&gt;- adresse : String&lt;/p&gt;&lt;p style=&quot;margin: 0px; font-stretch: normal; font-size: 12px; line-height: normal; font-size-adjust: none; font-kerning: auto; font-variant-alternates: normal; font-variant-ligatures: normal; font-variant-numeric: normal; font-variant-east-asian: normal; font-variant-position: normal; font-feature-settings: normal; font-optical-sizing: auto; font-variation-settings: normal; color: rgb(12, 12, 12);&quot;&gt;- mail: String&lt;/p&gt;&lt;p style=&quot;margin: 0px; font-stretch: normal; font-size: 12px; line-height: normal; font-size-adjust: none; font-kerning: auto; font-variant-alternates: normal; font-variant-ligatures: normal; font-variant-numeric: normal; font-variant-east-asian: normal; font-variant-position: normal; font-feature-settings: normal; font-optical-sizing: auto; font-variation-settings: normal; color: rgb(12, 12, 12);&quot;&gt;- telephone: String [0..1]&lt;/p&gt;&lt;p style=&quot;margin: 0px; font-stretch: normal; font-size: 12px; line-height: normal; font-size-adjust: none; font-kerning: auto; font-variant-alternates: normal; font-variant-ligatures: normal; font-variant-numeric: normal; font-variant-east-asian: normal; font-variant-position: normal; font-feature-settings: normal; font-optical-sizing: auto; font-variation-settings: normal; color: rgb(12, 12, 12);&quot;&gt;- motDePasse: String&lt;/p&gt;&lt;p style=&quot;margin: 0px; font-stretch: normal; font-size: 12px; line-height: normal; font-size-adjust: none; font-kerning: auto; font-variant-alternates: normal; font-variant-ligatures: normal; font-variant-numeric: normal; font-variant-east-asian: normal; font-variant-position: normal; font-feature-settings: normal; font-optical-sizing: auto; font-variation-settings: normal; color: rgb(12, 12, 12);&quot;&gt;- spécialité : Activité&lt;/p&gt;&lt;p style=&quot;margin: 0px; font-stretch: normal; font-size: 12px; line-height: normal; font-size-adjust: none; font-kerning: auto; font-variant-alternates: normal; font-variant-ligatures: normal; font-variant-numeric: normal; font-variant-east-asian: normal; font-variant-position: normal; font-feature-settings: normal; font-optical-sizing: auto; font-variation-settings: normal; color: rgb(12, 12, 12);&quot;&gt;- typeMatériel : String&lt;/p&gt;&lt;p style=&quot;margin: 0px; font-stretch: normal; font-size: 12px; line-height: normal; font-size-adjust: none; font-kerning: auto; font-variant-alternates: normal; font-variant-ligatures: normal; font-variant-numeric: normal; font-variant-east-asian: normal; font-variant-position: normal; font-feature-settings: normal; font-optical-sizing: auto; font-variation-settings: normal; color: rgb(12, 12, 12);&quot;&gt;- ventes : List&amp;lt;Vente&amp;gt;&lt;/p&gt;" style="text;strokeColor=none;fillColor=none;align=left;verticalAlign=top;spacingLeft=4;spacingRight=4;overflow=hidden;rotatable=0;points=[[0,0.5],[1,0.5]];portConstraint=eastwest;whiteSpace=wrap;html=1;fontFamily=Helvetica;fontSize=12;" parent="haiJlXltbiNpEPmk4q8_-2" vertex="1">
          <mxGeometry y="26" width="241.5" height="138" as="geometry" />
        </mxCell>
        <mxCell id="haiJlXltbiNpEPmk4q8_-4" value="" style="line;strokeWidth=1;fillColor=none;align=left;verticalAlign=middle;spacingTop=-1;spacingLeft=3;spacingRight=3;rotatable=0;labelPosition=right;points=[];portConstraint=eastwest;strokeColor=inherit;fontFamily=Helvetica;fontSize=12;" parent="haiJlXltbiNpEPmk4q8_-2" vertex="1">
          <mxGeometry y="164" width="241.5" height="10" as="geometry" />
        </mxCell>
        <mxCell id="Byqiin0oIiU6nuFTOo9S-4" value="&lt;p style=&quot;margin: 0px; font-stretch: normal; font-size: 12px; line-height: normal; font-size-adjust: none; font-kerning: auto; font-variant-alternates: normal; font-variant-ligatures: normal; font-variant-numeric: normal; font-variant-east-asian: normal; font-variant-position: normal; font-feature-settings: normal; font-optical-sizing: auto; font-variation-settings: normal; color: rgb(12, 12, 12);&quot;&gt;+ ajouterVente(vente: Vente): void&lt;/p&gt;&lt;p style=&quot;margin: 0px; font-stretch: normal; font-size: 12px; line-height: normal; font-size-adjust: none; font-kerning: auto; font-variant-alternates: normal; font-variant-ligatures: normal; font-variant-numeric: normal; font-variant-east-asian: normal; font-variant-position: normal; font-feature-settings: normal; font-optical-sizing: auto; font-variation-settings: normal; color: rgb(12, 12, 12);&quot;&gt;+ estIdentifie() : boolean&lt;/p&gt;&lt;p style=&quot;margin: 0px; font-stretch: normal; font-size: 12px; line-height: normal; font-size-adjust: none; font-kerning: auto; font-variant-alternates: normal; font-variant-ligatures: normal; font-variant-numeric: normal; font-variant-east-asian: normal; font-variant-position: normal; font-feature-settings: normal; font-optical-sizing: auto; font-variation-settings: normal; color: rgb(12, 12, 12);&quot;&gt;+ getVentes(): List&amp;lt;Vente&amp;gt;&lt;/p&gt;" style="text;strokeColor=none;fillColor=none;align=left;verticalAlign=top;spacingLeft=4;spacingRight=4;overflow=hidden;rotatable=0;points=[[0,0.5],[1,0.5]];portConstraint=eastwest;whiteSpace=wrap;html=1;fontFamily=Helvetica;fontSize=12;" parent="haiJlXltbiNpEPmk4q8_-2" vertex="1">
          <mxGeometry y="174" width="241.5" height="55" as="geometry" />
        </mxCell>
        <mxCell id="Byqiin0oIiU6nuFTOo9S-5" value="LigneDeVente" style="swimlane;fontStyle=1;align=center;verticalAlign=top;childLayout=stackLayout;horizontal=1;startSize=26;horizontalStack=0;resizeParent=1;resizeParentMax=0;resizeLast=0;collapsible=1;marginBottom=0;whiteSpace=wrap;html=1;fontFamily=Helvetica;fontSize=12;" parent="haiJlXltbiNpEPmk4q8_-1" vertex="1">
          <mxGeometry x="453" y="317" width="160" height="130" as="geometry" />
        </mxCell>
        <mxCell id="Byqiin0oIiU6nuFTOo9S-6" value="&lt;p style=&quot;margin: 0px; font-style: normal; font-variant-caps: normal; font-stretch: normal; font-size: 12px; line-height: normal; font-size-adjust: none; font-kerning: auto; font-variant-alternates: normal; font-variant-ligatures: normal; font-variant-numeric: normal; font-variant-east-asian: normal; font-variant-position: normal; font-feature-settings: normal; font-optical-sizing: auto; font-variation-settings: normal; color: rgb(12, 12, 12);&quot;&gt;- quantite : int&lt;br&gt;&lt;/p&gt;&lt;p style=&quot;margin: 0px; font-style: normal; font-variant-caps: normal; font-stretch: normal; font-size: 12px; line-height: normal; font-size-adjust: none; font-kerning: auto; font-variant-alternates: normal; font-variant-ligatures: normal; font-variant-numeric: normal; font-variant-east-asian: normal; font-variant-position: normal; font-feature-settings: normal; font-optical-sizing: auto; font-variation-settings: normal; color: rgb(12, 12, 12);&quot;&gt;- taille: String&lt;/p&gt;" style="text;strokeColor=none;fillColor=none;align=left;verticalAlign=top;spacingLeft=4;spacingRight=4;overflow=hidden;rotatable=0;points=[[0,0.5],[1,0.5]];portConstraint=eastwest;whiteSpace=wrap;html=1;fontFamily=Helvetica;fontSize=12;" parent="Byqiin0oIiU6nuFTOo9S-5" vertex="1">
          <mxGeometry y="26" width="160" height="54" as="geometry" />
        </mxCell>
        <mxCell id="Byqiin0oIiU6nuFTOo9S-7" value="" style="line;strokeWidth=1;fillColor=none;align=left;verticalAlign=middle;spacingTop=-1;spacingLeft=3;spacingRight=3;rotatable=0;labelPosition=right;points=[];portConstraint=eastwest;strokeColor=inherit;fontFamily=Helvetica;fontSize=12;" parent="Byqiin0oIiU6nuFTOo9S-5" vertex="1">
          <mxGeometry y="80" width="160" height="8" as="geometry" />
        </mxCell>
        <mxCell id="Byqiin0oIiU6nuFTOo9S-8" value="&lt;p style=&quot;margin: 0px; font-style: normal; font-variant-caps: normal; font-stretch: normal; font-size: 12px; line-height: normal; font-size-adjust: none; font-kerning: auto; font-variant-alternates: normal; font-variant-ligatures: normal; font-variant-numeric: normal; font-variant-east-asian: normal; font-variant-position: normal; font-feature-settings: normal; font-optical-sizing: auto; font-variation-settings: normal; color: rgb(14, 14, 14);&quot;&gt;+ calculerTotal() : double&lt;/p&gt;&lt;p style=&quot;margin: 0px; font-style: normal; font-variant-caps: normal; font-stretch: normal; font-size: 12px; line-height: normal; font-size-adjust: none; font-kerning: auto; font-variant-alternates: normal; font-variant-ligatures: normal; font-variant-numeric: normal; font-variant-east-asian: normal; font-variant-position: normal; font-feature-settings: normal; font-optical-sizing: auto; font-variation-settings: normal; color: rgb(14, 14, 14);&quot;&gt;+ getProduit() : Produit&lt;/p&gt;" style="text;strokeColor=none;fillColor=none;align=left;verticalAlign=top;spacingLeft=4;spacingRight=4;overflow=hidden;rotatable=0;points=[[0,0.5],[1,0.5]];portConstraint=eastwest;whiteSpace=wrap;html=1;fontFamily=Helvetica;fontSize=12;" parent="Byqiin0oIiU6nuFTOo9S-5" vertex="1">
          <mxGeometry y="88" width="160" height="42" as="geometry" />
        </mxCell>
        <mxCell id="Byqiin0oIiU6nuFTOo9S-15" value="Vente" style="swimlane;fontStyle=1;align=center;verticalAlign=top;childLayout=stackLayout;horizontal=1;startSize=26;horizontalStack=0;resizeParent=1;resizeParentMax=0;resizeLast=0;collapsible=1;marginBottom=0;whiteSpace=wrap;html=1;fontFamily=Helvetica;fontSize=12;" parent="haiJlXltbiNpEPmk4q8_-1" vertex="1">
          <mxGeometry x="766" y="321" width="340" height="266" as="geometry" />
        </mxCell>
        <mxCell id="Byqiin0oIiU6nuFTOo9S-16" value="&lt;p style=&quot;margin: 0px; font-style: normal; font-variant-caps: normal; font-stretch: normal; font-size: 12px; line-height: normal; font-size-adjust: none; font-kerning: auto; font-variant-alternates: normal; font-variant-ligatures: normal; font-variant-numeric: normal; font-variant-east-asian: normal; font-variant-position: normal; font-feature-settings: normal; font-optical-sizing: auto; font-variation-settings: normal; color: rgb(14, 14, 14);&quot;&gt;- nom : String&lt;/p&gt;&lt;p style=&quot;margin: 0px; font-style: normal; font-variant-caps: normal; font-stretch: normal; font-size: 12px; line-height: normal; font-size-adjust: none; font-kerning: auto; font-variant-alternates: normal; font-variant-ligatures: normal; font-variant-numeric: normal; font-variant-east-asian: normal; font-variant-position: normal; font-feature-settings: normal; font-optical-sizing: auto; font-variation-settings: normal; color: rgb(14, 14, 14);&quot;&gt;- dateDébut : Date&lt;/p&gt;&lt;p style=&quot;margin: 0px; font-style: normal; font-variant-caps: normal; font-stretch: normal; font-size: 12px; line-height: normal; font-size-adjust: none; font-kerning: auto; font-variant-alternates: normal; font-variant-ligatures: normal; font-variant-numeric: normal; font-variant-east-asian: normal; font-variant-position: normal; font-feature-settings: normal; font-optical-sizing: auto; font-variation-settings: normal; color: rgb(14, 14, 14);&quot;&gt;- dateFin : Date&lt;/p&gt;&lt;p style=&quot;margin: 0px; font-style: normal; font-variant-caps: normal; font-stretch: normal; font-size: 12px; line-height: normal; font-size-adjust: none; font-kerning: auto; font-variant-alternates: normal; font-variant-ligatures: normal; font-variant-numeric: normal; font-variant-east-asian: normal; font-variant-position: normal; font-feature-settings: normal; font-optical-sizing: auto; font-variation-settings: normal; color: rgb(14, 14, 14);&quot;&gt;- description : String&lt;/p&gt;&lt;p style=&quot;margin: 0px; font-style: normal; font-variant-caps: normal; font-stretch: normal; font-size: 12px; line-height: normal; font-size-adjust: none; font-kerning: auto; font-variant-alternates: normal; font-variant-ligatures: normal; font-variant-numeric: normal; font-variant-east-asian: normal; font-variant-position: normal; font-feature-settings: normal; font-optical-sizing: auto; font-variation-settings: normal; color: rgb(14, 14, 14);&quot;&gt;- activités : List&amp;lt;Activité&amp;gt;&lt;/p&gt;&lt;p style=&quot;margin: 0px; font-style: normal; font-variant-caps: normal; font-stretch: normal; font-size: 12px; line-height: normal; font-size-adjust: none; font-kerning: auto; font-variant-alternates: normal; font-variant-ligatures: normal; font-variant-numeric: normal; font-variant-east-asian: normal; font-variant-position: normal; font-feature-settings: normal; font-optical-sizing: auto; font-variation-settings: normal; color: rgb(14, 14, 14);&quot;&gt;- produits : List&amp;lt;LigneDeVente&amp;gt;&lt;/p&gt;&lt;p style=&quot;margin: 0px; font-style: normal; font-variant-caps: normal; font-stretch: normal; font-size: 12px; line-height: normal; font-size-adjust: none; font-kerning: auto; font-variant-alternates: normal; font-variant-ligatures: normal; font-variant-numeric: normal; font-variant-east-asian: normal; font-variant-position: normal; font-feature-settings: normal; font-optical-sizing: auto; font-variation-settings: normal; color: rgb(14, 14, 14);&quot;&gt;- statut : String&lt;/p&gt;" style="text;strokeColor=none;fillColor=none;align=left;verticalAlign=top;spacingLeft=4;spacingRight=4;overflow=hidden;rotatable=0;points=[[0,0.5],[1,0.5]];portConstraint=eastwest;whiteSpace=wrap;html=1;fontFamily=Helvetica;fontSize=12;" parent="Byqiin0oIiU6nuFTOo9S-15" vertex="1">
          <mxGeometry y="26" width="340" height="114" as="geometry" />
        </mxCell>
        <mxCell id="Byqiin0oIiU6nuFTOo9S-17" value="" style="line;strokeWidth=1;fillColor=none;align=left;verticalAlign=middle;spacingTop=-1;spacingLeft=3;spacingRight=3;rotatable=0;labelPosition=right;points=[];portConstraint=eastwest;strokeColor=inherit;fontFamily=Helvetica;fontSize=12;" parent="Byqiin0oIiU6nuFTOo9S-15" vertex="1">
          <mxGeometry y="140" width="340" height="20" as="geometry" />
        </mxCell>
        <mxCell id="Byqiin0oIiU6nuFTOo9S-18" value="&lt;p style=&quot;margin: 0px; font-style: normal; font-variant-caps: normal; font-stretch: normal; font-size: 12px; line-height: normal; font-size-adjust: none; font-kerning: auto; font-variant-alternates: normal; font-variant-ligatures: normal; font-variant-numeric: normal; font-variant-east-asian: normal; font-variant-position: normal; font-feature-settings: normal; font-optical-sizing: auto; font-variation-settings: normal; color: rgb(14, 14, 14);&quot;&gt;+ ajouterProduit(produit : Produit, quantite : int) : void&lt;/p&gt;&lt;p style=&quot;margin: 0px; font-style: normal; font-variant-caps: normal; font-stretch: normal; font-size: 12px; line-height: normal; font-size-adjust: none; font-kerning: auto; font-variant-alternates: normal; font-variant-ligatures: normal; font-variant-numeric: normal; font-variant-east-asian: normal; font-variant-position: normal; font-feature-settings: normal; font-optical-sizing: auto; font-variation-settings: normal; color: rgb(14, 14, 14);&quot;&gt;+ soumettrePourValidation() : void&lt;/p&gt;&lt;p style=&quot;margin: 0px; font-style: normal; font-variant-caps: normal; font-stretch: normal; font-size: 12px; line-height: normal; font-size-adjust: none; font-kerning: auto; font-variant-alternates: normal; font-variant-ligatures: normal; font-variant-numeric: normal; font-variant-east-asian: normal; font-variant-position: normal; font-feature-settings: normal; font-optical-sizing: auto; font-variation-settings: normal; color: rgb(14, 14, 14);&quot;&gt;+ valider() : void&lt;/p&gt;&lt;p style=&quot;margin: 0px; font-style: normal; font-variant-caps: normal; font-stretch: normal; font-size: 12px; line-height: normal; font-size-adjust: none; font-kerning: auto; font-variant-alternates: normal; font-variant-ligatures: normal; font-variant-numeric: normal; font-variant-east-asian: normal; font-variant-position: normal; font-feature-settings: normal; font-optical-sizing: auto; font-variation-settings: normal; color: rgb(14, 14, 14);&quot;&gt;+ getStatus(): String&lt;/p&gt;" style="text;strokeColor=none;fillColor=none;align=left;verticalAlign=top;spacingLeft=4;spacingRight=4;overflow=hidden;rotatable=0;points=[[0,0.5],[1,0.5]];portConstraint=eastwest;whiteSpace=wrap;html=1;fontFamily=Helvetica;fontSize=12;" parent="Byqiin0oIiU6nuFTOo9S-15" vertex="1">
          <mxGeometry y="160" width="340" height="106" as="geometry" />
        </mxCell>
        <mxCell id="Byqiin0oIiU6nuFTOo9S-23" value="Produit" style="swimlane;fontStyle=1;align=center;verticalAlign=top;childLayout=stackLayout;horizontal=1;startSize=26;horizontalStack=0;resizeParent=1;resizeParentMax=0;resizeLast=0;collapsible=1;marginBottom=0;whiteSpace=wrap;html=1;fontFamily=Helvetica;fontSize=12;" parent="haiJlXltbiNpEPmk4q8_-1" vertex="1">
          <mxGeometry x="60" y="367" width="223" height="210" as="geometry" />
        </mxCell>
        <mxCell id="Byqiin0oIiU6nuFTOo9S-24" value="&lt;p style=&quot;margin: 0px; font-style: normal; font-variant-caps: normal; font-stretch: normal; font-size: 12px; line-height: normal; font-size-adjust: none; font-kerning: auto; font-variant-alternates: normal; font-variant-ligatures: normal; font-variant-numeric: normal; font-variant-east-asian: normal; font-variant-position: normal; font-feature-settings: normal; font-optical-sizing: auto; font-variation-settings: normal; color: rgb(14, 14, 14);&quot;&gt;- nom : String&lt;/p&gt;&lt;p style=&quot;margin: 0px; font-style: normal; font-variant-caps: normal; font-stretch: normal; font-size: 12px; line-height: normal; font-size-adjust: none; font-kerning: auto; font-variant-alternates: normal; font-variant-ligatures: normal; font-variant-numeric: normal; font-variant-east-asian: normal; font-variant-position: normal; font-feature-settings: normal; font-optical-sizing: auto; font-variation-settings: normal; color: rgb(14, 14, 14);&quot;&gt;- description : String&lt;/p&gt;&lt;p style=&quot;margin: 0px; font-style: normal; font-variant-caps: normal; font-stretch: normal; font-size: 12px; line-height: normal; font-size-adjust: none; font-kerning: auto; font-variant-alternates: normal; font-variant-ligatures: normal; font-variant-numeric: normal; font-variant-east-asian: normal; font-variant-position: normal; font-feature-settings: normal; font-optical-sizing: auto; font-variation-settings: normal; color: rgb(14, 14, 14);&quot;&gt;- photo : URL&lt;/p&gt;&lt;p style=&quot;margin: 0px; font-style: normal; font-variant-caps: normal; font-stretch: normal; font-size: 12px; line-height: normal; font-size-adjust: none; font-kerning: auto; font-variant-alternates: normal; font-variant-ligatures: normal; font-variant-numeric: normal; font-variant-east-asian: normal; font-variant-position: normal; font-feature-settings: normal; font-optical-sizing: auto; font-variation-settings: normal; color: rgb(14, 14, 14);&quot;&gt;- prixBase : double&lt;/p&gt;&lt;p style=&quot;margin: 0px; font-style: normal; font-variant-caps: normal; font-stretch: normal; font-size: 12px; line-height: normal; font-size-adjust: none; font-kerning: auto; font-variant-alternates: normal; font-variant-ligatures: normal; font-variant-numeric: normal; font-variant-east-asian: normal; font-variant-position: normal; font-feature-settings: normal; font-optical-sizing: auto; font-variation-settings: normal; color: rgb(14, 14, 14);&quot;&gt;- prixVente : double&lt;/p&gt;" style="text;strokeColor=none;fillColor=none;align=left;verticalAlign=top;spacingLeft=4;spacingRight=4;overflow=hidden;rotatable=0;points=[[0,0.5],[1,0.5]];portConstraint=eastwest;whiteSpace=wrap;html=1;fontFamily=Helvetica;fontSize=12;" parent="Byqiin0oIiU6nuFTOo9S-23" vertex="1">
          <mxGeometry y="26" width="223" height="104" as="geometry" />
        </mxCell>
        <mxCell id="Byqiin0oIiU6nuFTOo9S-25" value="" style="line;strokeWidth=1;fillColor=none;align=left;verticalAlign=middle;spacingTop=-1;spacingLeft=3;spacingRight=3;rotatable=0;labelPosition=right;points=[];portConstraint=eastwest;strokeColor=inherit;fontFamily=Helvetica;fontSize=12;" parent="Byqiin0oIiU6nuFTOo9S-23" vertex="1">
          <mxGeometry y="130" width="223" height="10" as="geometry" />
        </mxCell>
        <mxCell id="Byqiin0oIiU6nuFTOo9S-26" value="&lt;p style=&quot;margin: 0px; font-style: normal; font-variant-caps: normal; font-stretch: normal; font-size: 12px; line-height: normal; font-size-adjust: none; font-kerning: auto; font-variant-alternates: normal; font-variant-ligatures: normal; font-variant-numeric: normal; font-variant-east-asian: normal; font-variant-position: normal; font-feature-settings: normal; font-optical-sizing: auto; font-variation-settings: normal; color: rgb(14, 14, 14);&quot;&gt;+ getDetails() : String&lt;/p&gt;&lt;p style=&quot;margin: 0px; font-style: normal; font-variant-caps: normal; font-stretch: normal; font-size: 12px; line-height: normal; font-size-adjust: none; font-kerning: auto; font-variant-alternates: normal; font-variant-ligatures: normal; font-variant-numeric: normal; font-variant-east-asian: normal; font-variant-position: normal; font-feature-settings: normal; font-optical-sizing: auto; font-variation-settings: normal; color: rgb(14, 14, 14);&quot;&gt;+ calculerPrixVente() : double&lt;/p&gt;" style="text;strokeColor=none;fillColor=none;align=left;verticalAlign=top;spacingLeft=4;spacingRight=4;overflow=hidden;rotatable=0;points=[[0,0.5],[1,0.5]];portConstraint=eastwest;whiteSpace=wrap;html=1;fontFamily=Helvetica;fontSize=12;" parent="Byqiin0oIiU6nuFTOo9S-23" vertex="1">
          <mxGeometry y="140" width="223" height="70" as="geometry" />
        </mxCell>
        <mxCell id="IG5UA2AN9uhhS98htSM2-3" value="" style="endArrow=diamondThin;html=1;rounded=0;entryX=0.499;entryY=1.01;entryDx=0;entryDy=0;exitX=0.5;exitY=0;exitDx=0;exitDy=0;fontFamily=Helvetica;fontSize=12;entryPerimeter=0;endFill=0;" parent="haiJlXltbiNpEPmk4q8_-1" source="Byqiin0oIiU6nuFTOo9S-15" target="Byqiin0oIiU6nuFTOo9S-4" edge="1">
          <mxGeometry width="50" height="50" relative="1" as="geometry">
            <mxPoint x="880" y="527" as="sourcePoint" />
            <mxPoint x="930" y="477" as="targetPoint" />
          </mxGeometry>
        </mxCell>
        <mxCell id="IG5UA2AN9uhhS98htSM2-4" value="1" style="text;html=1;align=center;verticalAlign=middle;whiteSpace=wrap;rounded=0;fontFamily=Helvetica;fontSize=12;" parent="haiJlXltbiNpEPmk4q8_-1" vertex="1">
          <mxGeometry x="897" y="301" width="40" height="20" as="geometry" />
        </mxCell>
        <mxCell id="IG5UA2AN9uhhS98htSM2-5" value="0..*" style="text;html=1;align=center;verticalAlign=middle;whiteSpace=wrap;rounded=0;fontFamily=Helvetica;fontSize=12;" parent="haiJlXltbiNpEPmk4q8_-1" vertex="1">
          <mxGeometry x="897" y="266" width="40" height="20" as="geometry" />
        </mxCell>
        <mxCell id="IG5UA2AN9uhhS98htSM2-6" value="" style="endArrow=none;html=1;rounded=0;exitX=0;exitY=0.5;exitDx=0;exitDy=0;entryX=0.997;entryY=0.389;entryDx=0;entryDy=0;startArrow=diamondThin;startFill=0;fontFamily=Helvetica;fontSize=12;entryPerimeter=0;" parent="haiJlXltbiNpEPmk4q8_-1" source="Byqiin0oIiU6nuFTOo9S-18" target="Byqiin0oIiU6nuFTOo9S-26" edge="1">
          <mxGeometry width="50" height="50" relative="1" as="geometry">
            <mxPoint x="880" y="527" as="sourcePoint" />
            <mxPoint x="930" y="477" as="targetPoint" />
          </mxGeometry>
        </mxCell>
        <mxCell id="IG5UA2AN9uhhS98htSM2-23" value="&amp;lt;&amp;lt;enumeration&amp;gt;&amp;gt; Activité" style="swimlane;fontStyle=1;align=center;verticalAlign=top;childLayout=stackLayout;horizontal=1;startSize=26;horizontalStack=0;resizeParent=1;resizeParentMax=0;resizeLast=0;collapsible=1;marginBottom=0;whiteSpace=wrap;html=1;fontFamily=Helvetica;fontSize=12;" parent="haiJlXltbiNpEPmk4q8_-1" vertex="1">
          <mxGeometry x="853" y="647" width="160" height="145" as="geometry" />
        </mxCell>
        <mxCell id="IG5UA2AN9uhhS98htSM2-24" value="&lt;p style=&quot;margin: 0px; font-style: normal; font-variant-caps: normal; font-stretch: normal; font-size: 12px; line-height: normal; font-size-adjust: none; font-kerning: auto; font-variant-alternates: normal; font-variant-ligatures: normal; font-variant-numeric: normal; font-variant-east-asian: normal; font-variant-position: normal; font-feature-settings: normal; font-optical-sizing: auto; font-variation-settings: normal; color: rgb(14, 14, 14);&quot;&gt;- SURFING&lt;/p&gt;&lt;p style=&quot;margin: 0px; font-style: normal; font-variant-caps: normal; font-stretch: normal; font-size: 12px; line-height: normal; font-size-adjust: none; font-kerning: auto; font-variant-alternates: normal; font-variant-ligatures: normal; font-variant-numeric: normal; font-variant-east-asian: normal; font-variant-position: normal; font-feature-settings: normal; font-optical-sizing: auto; font-variation-settings: normal; color: rgb(14, 14, 14);&quot;&gt;- SNOWBOARDING&lt;/p&gt;&lt;p style=&quot;margin: 0px; font-style: normal; font-variant-caps: normal; font-stretch: normal; font-size: 12px; line-height: normal; font-size-adjust: none; font-kerning: auto; font-variant-alternates: normal; font-variant-ligatures: normal; font-variant-numeric: normal; font-variant-east-asian: normal; font-variant-position: normal; font-feature-settings: normal; font-optical-sizing: auto; font-variation-settings: normal; color: rgb(14, 14, 14);&quot;&gt;- SKATEBOARDING&lt;/p&gt;&lt;p style=&quot;margin: 0px; font-style: normal; font-variant-caps: normal; font-stretch: normal; font-size: 12px; line-height: normal; font-size-adjust: none; font-kerning: auto; font-variant-alternates: normal; font-variant-ligatures: normal; font-variant-numeric: normal; font-variant-east-asian: normal; font-variant-position: normal; font-feature-settings: normal; font-optical-sizing: auto; font-variation-settings: normal; color: rgb(14, 14, 14);&quot;&gt;- KITESURFING&lt;/p&gt;&lt;p style=&quot;margin: 0px; font-style: normal; font-variant-caps: normal; font-stretch: normal; font-size: 12px; line-height: normal; font-size-adjust: none; font-kerning: auto; font-variant-alternates: normal; font-variant-ligatures: normal; font-variant-numeric: normal; font-variant-east-asian: normal; font-variant-position: normal; font-feature-settings: normal; font-optical-sizing: auto; font-variation-settings: normal; color: rgb(14, 14, 14);&quot;&gt;- WINDSURFING&lt;/p&gt;&lt;p style=&quot;margin: 0px; font-style: normal; font-variant-caps: normal; font-stretch: normal; font-size: 12px; line-height: normal; font-size-adjust: none; font-kerning: auto; font-variant-alternates: normal; font-variant-ligatures: normal; font-variant-numeric: normal; font-variant-east-asian: normal; font-variant-position: normal; font-feature-settings: normal; font-optical-sizing: auto; font-variation-settings: normal; color: rgb(14, 14, 14);&quot;&gt;- WAKEBOARDING&lt;/p&gt;" style="text;strokeColor=none;fillColor=none;align=left;verticalAlign=top;spacingLeft=4;spacingRight=4;overflow=hidden;rotatable=0;points=[[0,0.5],[1,0.5]];portConstraint=eastwest;whiteSpace=wrap;html=1;fontFamily=Helvetica;fontSize=12;" parent="IG5UA2AN9uhhS98htSM2-23" vertex="1">
          <mxGeometry y="26" width="160" height="111" as="geometry" />
        </mxCell>
        <mxCell id="IG5UA2AN9uhhS98htSM2-25" value="" style="line;strokeWidth=1;fillColor=none;align=left;verticalAlign=middle;spacingTop=-1;spacingLeft=3;spacingRight=3;rotatable=0;labelPosition=right;points=[];portConstraint=eastwest;strokeColor=inherit;fontFamily=Helvetica;fontSize=12;" parent="IG5UA2AN9uhhS98htSM2-23" vertex="1">
          <mxGeometry y="137" width="160" height="8" as="geometry" />
        </mxCell>
        <mxCell id="rKWNFQ30-exPcTzaDue0-0" value="" style="endArrow=none;html=1;strokeWidth=2;rounded=0;entryX=0.49;entryY=1.056;entryDx=0;entryDy=0;entryPerimeter=0;dashed=1;" parent="haiJlXltbiNpEPmk4q8_-1" target="Byqiin0oIiU6nuFTOo9S-8" edge="1">
          <mxGeometry width="50" height="50" relative="1" as="geometry">
            <mxPoint x="532" y="531" as="sourcePoint" />
            <mxPoint x="637" y="448" as="targetPoint" />
          </mxGeometry>
        </mxCell>
        <mxCell id="rKWNFQ30-exPcTzaDue0-1" value="*" style="text;html=1;align=center;verticalAlign=middle;whiteSpace=wrap;rounded=0;fontFamily=Helvetica;fontSize=12;" parent="haiJlXltbiNpEPmk4q8_-1" vertex="1">
          <mxGeometry x="283" y="513" width="40" height="20" as="geometry" />
        </mxCell>
        <mxCell id="rKWNFQ30-exPcTzaDue0-2" value="*" style="text;html=1;align=center;verticalAlign=middle;whiteSpace=wrap;rounded=0;fontFamily=Helvetica;fontSize=12;" parent="haiJlXltbiNpEPmk4q8_-1" vertex="1">
          <mxGeometry x="714" y="510" width="40" height="20" as="geometry" />
        </mxCell>
        <mxCell id="r70m2yci8hIPqlkI2QYp-0" value="&amp;lt;&amp;lt;Boundary&amp;gt;&amp;gt; BoundaryVente" style="swimlane;fontStyle=1;align=center;verticalAlign=top;childLayout=stackLayout;horizontal=1;startSize=26;horizontalStack=0;resizeParent=1;resizeParentMax=0;resizeLast=0;collapsible=1;marginBottom=0;whiteSpace=wrap;html=1;fontFamily=Helvetica;fontSize=12;" vertex="1" parent="haiJlXltbiNpEPmk4q8_-1">
          <mxGeometry x="54" y="39" width="267" height="149" as="geometry" />
        </mxCell>
        <mxCell id="r70m2yci8hIPqlkI2QYp-1" value="&lt;p style=&quot;margin: 0px; font-style: normal; font-variant-caps: normal; font-stretch: normal; font-size: 12px; line-height: normal; font-size-adjust: none; font-kerning: auto; font-variant-alternates: normal; font-variant-ligatures: normal; font-variant-numeric: normal; font-variant-east-asian: normal; font-variant-position: normal; font-feature-settings: normal; font-optical-sizing: auto; font-variation-settings: normal; color: rgb(14, 14, 14);&quot;&gt;&lt;br&gt;&lt;/p&gt;" style="text;strokeColor=none;fillColor=none;align=left;verticalAlign=top;spacingLeft=4;spacingRight=4;overflow=hidden;rotatable=0;points=[[0,0.5],[1,0.5]];portConstraint=eastwest;whiteSpace=wrap;html=1;fontFamily=Helvetica;fontSize=12;" vertex="1" parent="r70m2yci8hIPqlkI2QYp-0">
          <mxGeometry y="26" width="267" height="19" as="geometry" />
        </mxCell>
        <mxCell id="r70m2yci8hIPqlkI2QYp-2" value="" style="line;strokeWidth=1;fillColor=none;align=left;verticalAlign=middle;spacingTop=-1;spacingLeft=3;spacingRight=3;rotatable=0;labelPosition=right;points=[];portConstraint=eastwest;strokeColor=inherit;fontFamily=Helvetica;fontSize=12;" vertex="1" parent="r70m2yci8hIPqlkI2QYp-0">
          <mxGeometry y="45" width="267" height="10" as="geometry" />
        </mxCell>
        <mxCell id="r70m2yci8hIPqlkI2QYp-3" value="&lt;p style=&quot;margin: 0px; font-stretch: normal; line-height: normal; font-size-adjust: none; font-kerning: auto; font-variant-alternates: normal; font-variant-ligatures: normal; font-variant-numeric: normal; font-variant-east-asian: normal; font-variant-position: normal; font-feature-settings: normal; font-optical-sizing: auto; font-variation-settings: normal; color: rgb(14, 14, 14);&quot;&gt;+ demanderVente() : void&lt;/p&gt;&lt;p style=&quot;margin: 0px; font-stretch: normal; line-height: normal; font-size-adjust: none; font-kerning: auto; font-variant-alternates: normal; font-variant-ligatures: normal; font-variant-numeric: normal; font-variant-east-asian: normal; font-variant-position: normal; font-feature-settings: normal; font-optical-sizing: auto; font-variation-settings: normal; color: rgb(14, 14, 14);&quot;&gt;+ afficherErreurConnexion() : void&lt;/p&gt;&lt;p style=&quot;margin: 0px; font-stretch: normal; line-height: normal; font-size-adjust: none; font-kerning: auto; font-variant-alternates: normal; font-variant-ligatures: normal; font-variant-numeric: normal; font-variant-east-asian: normal; font-variant-position: normal; font-feature-settings: normal; font-optical-sizing: auto; font-variation-settings: normal; color: rgb(14, 14, 14);&quot;&gt;+ proposerVenter() : void&lt;/p&gt;&lt;p style=&quot;margin: 0px; font-style: normal; font-variant-caps: normal; font-stretch: normal; font-size: 12px; line-height: normal; font-size-adjust: none; font-kerning: auto; font-variant-alternates: normal; font-variant-ligatures: normal; font-variant-numeric: normal; font-variant-east-asian: normal; font-variant-position: normal; font-feature-settings: normal; font-optical-sizing: auto; font-variation-settings: normal; color: rgb(14, 14, 14);&quot;&gt;+ demanderConnexion(id: String, mdp: String) : void&lt;/p&gt;" style="text;strokeColor=none;fillColor=none;align=left;verticalAlign=top;spacingLeft=4;spacingRight=4;overflow=hidden;rotatable=0;points=[[0,0.5],[1,0.5]];portConstraint=eastwest;whiteSpace=wrap;html=1;fontFamily=Helvetica;fontSize=12;" vertex="1" parent="r70m2yci8hIPqlkI2QYp-0">
          <mxGeometry y="55" width="267" height="94" as="geometry" />
        </mxCell>
        <mxCell id="r70m2yci8hIPqlkI2QYp-4" value="&amp;lt;&amp;lt;Controller&amp;gt;&amp;gt; VenteController" style="swimlane;fontStyle=1;align=center;verticalAlign=top;childLayout=stackLayout;horizontal=1;startSize=26;horizontalStack=0;resizeParent=1;resizeParentMax=0;resizeLast=0;collapsible=1;marginBottom=0;whiteSpace=wrap;html=1;fontFamily=Helvetica;fontSize=12;" vertex="1" parent="haiJlXltbiNpEPmk4q8_-1">
          <mxGeometry x="445" y="38" width="223" height="150" as="geometry" />
        </mxCell>
        <mxCell id="r70m2yci8hIPqlkI2QYp-6" value="" style="line;strokeWidth=1;fillColor=none;align=left;verticalAlign=middle;spacingTop=-1;spacingLeft=3;spacingRight=3;rotatable=0;labelPosition=right;points=[];portConstraint=eastwest;strokeColor=inherit;fontFamily=Helvetica;fontSize=12;" vertex="1" parent="r70m2yci8hIPqlkI2QYp-4">
          <mxGeometry y="26" width="223" height="10" as="geometry" />
        </mxCell>
        <mxCell id="r70m2yci8hIPqlkI2QYp-7" value="&lt;p style=&quot;margin: 0px; font-stretch: normal; line-height: normal; font-size-adjust: none; font-kerning: auto; font-variant-alternates: normal; font-variant-ligatures: normal; font-variant-numeric: normal; font-variant-east-asian: normal; font-variant-position: normal; font-feature-settings: normal; font-optical-sizing: auto; font-variation-settings: normal; color: rgb(14, 14, 14);&quot;&gt;+ verifierIdentifiants(id: String, mdp: String)&lt;/p&gt;&lt;p style=&quot;margin: 0px; font-stretch: normal; line-height: normal; font-size-adjust: none; font-kerning: auto; font-variant-alternates: normal; font-variant-ligatures: normal; font-variant-numeric: normal; font-variant-east-asian: normal; font-variant-position: normal; font-feature-settings: normal; font-optical-sizing: auto; font-variation-settings: normal; color: rgb(14, 14, 14);&quot;&gt;+ creerVente(): Vente&lt;/p&gt;&lt;p style=&quot;margin: 0px; font-stretch: normal; line-height: normal; font-size-adjust: none; font-kerning: auto; font-variant-alternates: normal; font-variant-ligatures: normal; font-variant-numeric: normal; font-variant-east-asian: normal; font-variant-position: normal; font-feature-settings: normal; font-optical-sizing: auto; font-variation-settings: normal; color: rgb(14, 14, 14);&quot;&gt;+ validerVente: void&lt;/p&gt;&lt;p style=&quot;margin: 0px; font-stretch: normal; line-height: normal; font-size-adjust: none; font-kerning: auto; font-variant-alternates: normal; font-variant-ligatures: normal; font-variant-numeric: normal; font-variant-east-asian: normal; font-variant-position: normal; font-feature-settings: normal; font-optical-sizing: auto; font-variation-settings: normal; color: rgb(14, 14, 14);&quot;&gt;+ rejeterVente(motif: String) : void&lt;/p&gt;" style="text;strokeColor=none;fillColor=none;align=left;verticalAlign=top;spacingLeft=4;spacingRight=4;overflow=hidden;rotatable=0;points=[[0,0.5],[1,0.5]];portConstraint=eastwest;whiteSpace=wrap;html=1;fontFamily=Helvetica;fontSize=12;" vertex="1" parent="r70m2yci8hIPqlkI2QYp-4">
          <mxGeometry y="36" width="223" height="114" as="geometry" />
        </mxCell>
        <mxCell id="r70m2yci8hIPqlkI2QYp-17" style="edgeStyle=orthogonalEdgeStyle;rounded=0;orthogonalLoop=1;jettySize=auto;html=1;exitX=1;exitY=0.5;exitDx=0;exitDy=0;entryX=-0.016;entryY=0.579;entryDx=0;entryDy=0;entryPerimeter=0;endArrow=classic;endFill=1;" edge="1" parent="haiJlXltbiNpEPmk4q8_-1" source="r70m2yci8hIPqlkI2QYp-3" target="r70m2yci8hIPqlkI2QYp-7">
          <mxGeometry relative="1" as="geometry" />
        </mxCell>
        <mxCell id="r70m2yci8hIPqlkI2QYp-18" value="1" style="text;html=1;align=center;verticalAlign=middle;whiteSpace=wrap;rounded=0;fontFamily=Helvetica;fontSize=12;" vertex="1" parent="haiJlXltbiNpEPmk4q8_-1">
          <mxGeometry x="316" y="118" width="40" height="20" as="geometry" />
        </mxCell>
        <mxCell id="r70m2yci8hIPqlkI2QYp-19" value="0..*" style="text;html=1;align=center;verticalAlign=middle;whiteSpace=wrap;rounded=0;fontFamily=Helvetica;fontSize=12;" vertex="1" parent="haiJlXltbiNpEPmk4q8_-1">
          <mxGeometry x="407" y="120" width="40" height="20" as="geometry" />
        </mxCell>
        <mxCell id="r70m2yci8hIPqlkI2QYp-20" style="edgeStyle=orthogonalEdgeStyle;rounded=0;orthogonalLoop=1;jettySize=auto;html=1;exitX=1;exitY=0.5;exitDx=0;exitDy=0;entryX=0;entryY=0.5;entryDx=0;entryDy=0;endArrow=classic;endFill=1;" edge="1" parent="haiJlXltbiNpEPmk4q8_-1" source="r70m2yci8hIPqlkI2QYp-7" target="haiJlXltbiNpEPmk4q8_-3">
          <mxGeometry relative="1" as="geometry" />
        </mxCell>
        <mxCell id="r70m2yci8hIPqlkI2QYp-22" value="1" style="text;html=1;align=center;verticalAlign=middle;whiteSpace=wrap;rounded=0;fontFamily=Helvetica;fontSize=12;" vertex="1" parent="haiJlXltbiNpEPmk4q8_-1">
          <mxGeometry x="665" y="111" width="40" height="20" as="geometry" />
        </mxCell>
        <mxCell id="r70m2yci8hIPqlkI2QYp-23" value="1..*" style="text;html=1;align=center;verticalAlign=middle;whiteSpace=wrap;rounded=0;fontFamily=Helvetica;fontSize=12;" vertex="1" parent="haiJlXltbiNpEPmk4q8_-1">
          <mxGeometry x="775.25" y="111" width="40" height="20" as="geometry" />
        </mxCell>
      </root>
    </mxGraphModel>
  </diagram>
  <diagram id="lxbaGcwKKqFB154Z29y6" name="Diagramme de séquence">
    <mxGraphModel dx="1026" dy="668" grid="1" gridSize="10" guides="1" tooltips="1" connect="1" arrows="1" fold="1" page="1" pageScale="1" pageWidth="1169" pageHeight="827" math="0" shadow="0">
      <root>
        <mxCell id="0" />
        <mxCell id="1" parent="0" />
        <mxCell id="yqZwaxu3UopcbkUO5Tiz-1" value="FOURNISSEUR" style="shape=umlLifeline;perimeter=lifelinePerimeter;whiteSpace=wrap;html=1;container=1;dropTarget=0;collapsible=0;recursiveResize=0;outlineConnect=0;portConstraint=eastwest;newEdgeStyle={&quot;edgeStyle&quot;:&quot;elbowEdgeStyle&quot;,&quot;elbow&quot;:&quot;vertical&quot;,&quot;curved&quot;:0,&quot;rounded&quot;:0};" vertex="1" parent="1">
          <mxGeometry x="110" y="100" width="100" height="660" as="geometry" />
        </mxCell>
        <mxCell id="yqZwaxu3UopcbkUO5Tiz-7" value="" style="html=1;points=[[0,0,0,0,5],[0,1,0,0,-5],[1,0,0,0,5],[1,1,0,0,-5]];perimeter=orthogonalPerimeter;outlineConnect=0;targetShapes=umlLifeline;portConstraint=eastwest;newEdgeStyle={&quot;curved&quot;:0,&quot;rounded&quot;:0};" vertex="1" parent="yqZwaxu3UopcbkUO5Tiz-1">
          <mxGeometry x="45" y="100" width="10" height="520" as="geometry" />
        </mxCell>
        <mxCell id="yqZwaxu3UopcbkUO5Tiz-2" value="SYSTÈME" style="shape=umlLifeline;perimeter=lifelinePerimeter;whiteSpace=wrap;html=1;container=1;dropTarget=0;collapsible=0;recursiveResize=0;outlineConnect=0;portConstraint=eastwest;newEdgeStyle={&quot;edgeStyle&quot;:&quot;elbowEdgeStyle&quot;,&quot;elbow&quot;:&quot;vertical&quot;,&quot;curved&quot;:0,&quot;rounded&quot;:0};" vertex="1" parent="1">
          <mxGeometry x="310" y="100" width="100" height="660" as="geometry" />
        </mxCell>
        <mxCell id="yqZwaxu3UopcbkUO5Tiz-3" value="GÉRANT" style="shape=umlLifeline;perimeter=lifelinePerimeter;whiteSpace=wrap;html=1;container=1;dropTarget=0;collapsible=0;recursiveResize=0;outlineConnect=0;portConstraint=eastwest;newEdgeStyle={&quot;edgeStyle&quot;:&quot;elbowEdgeStyle&quot;,&quot;elbow&quot;:&quot;vertical&quot;,&quot;curved&quot;:0,&quot;rounded&quot;:0};" vertex="1" parent="1">
          <mxGeometry x="530" y="100" width="100" height="660" as="geometry" />
        </mxCell>
        <mxCell id="yqZwaxu3UopcbkUO5Tiz-11" value="" style="html=1;points=[[0,0,0,0,5],[0,1,0,0,-5],[1,0,0,0,5],[1,1,0,0,-5]];perimeter=orthogonalPerimeter;outlineConnect=0;targetShapes=umlLifeline;portConstraint=eastwest;newEdgeStyle={&quot;curved&quot;:0,&quot;rounded&quot;:0};" vertex="1" parent="yqZwaxu3UopcbkUO5Tiz-3">
          <mxGeometry x="45" y="140" width="10" height="300" as="geometry" />
        </mxCell>
        <mxCell id="yqZwaxu3UopcbkUO5Tiz-4" value="CLIENT PRIVILÉGIÉ" style="shape=umlLifeline;perimeter=lifelinePerimeter;whiteSpace=wrap;html=1;container=1;dropTarget=0;collapsible=0;recursiveResize=0;outlineConnect=0;portConstraint=eastwest;newEdgeStyle={&quot;edgeStyle&quot;:&quot;elbowEdgeStyle&quot;,&quot;elbow&quot;:&quot;vertical&quot;,&quot;curved&quot;:0,&quot;rounded&quot;:0};" vertex="1" parent="1">
          <mxGeometry x="730" y="100" width="100" height="660" as="geometry" />
        </mxCell>
        <mxCell id="yqZwaxu3UopcbkUO5Tiz-5" value="SERVEUR MAIL" style="shape=umlLifeline;perimeter=lifelinePerimeter;whiteSpace=wrap;html=1;container=1;dropTarget=0;collapsible=0;recursiveResize=0;outlineConnect=0;portConstraint=eastwest;newEdgeStyle={&quot;edgeStyle&quot;:&quot;elbowEdgeStyle&quot;,&quot;elbow&quot;:&quot;vertical&quot;,&quot;curved&quot;:0,&quot;rounded&quot;:0};" vertex="1" parent="1">
          <mxGeometry x="960" y="100" width="100" height="660" as="geometry" />
        </mxCell>
        <mxCell id="yqZwaxu3UopcbkUO5Tiz-9" value="Propose une vente" style="html=1;verticalAlign=bottom;endArrow=block;curved=0;rounded=0;exitX=1;exitY=0;exitDx=0;exitDy=5;exitPerimeter=0;" edge="1" parent="1" source="yqZwaxu3UopcbkUO5Tiz-7">
          <mxGeometry x="-0.0256" y="15" width="80" relative="1" as="geometry">
            <mxPoint x="480" y="360" as="sourcePoint" />
            <mxPoint x="360" y="205" as="targetPoint" />
            <mxPoint as="offset" />
          </mxGeometry>
        </mxCell>
        <mxCell id="yqZwaxu3UopcbkUO5Tiz-10" value="Envoie une demande de validation" style="html=1;verticalAlign=bottom;endArrow=block;curved=0;rounded=0;" edge="1" parent="1" target="yqZwaxu3UopcbkUO5Tiz-11">
          <mxGeometry x="-0.0264" y="15" width="80" relative="1" as="geometry">
            <mxPoint x="359.6666666666665" y="250" as="sourcePoint" />
            <mxPoint x="570" y="250" as="targetPoint" />
            <mxPoint as="offset" />
          </mxGeometry>
        </mxCell>
        <mxCell id="yqZwaxu3UopcbkUO5Tiz-12" value="Valide la vente" style="html=1;verticalAlign=bottom;endArrow=open;dashed=1;endSize=8;curved=0;rounded=0;" edge="1" parent="1">
          <mxGeometry relative="1" as="geometry">
            <mxPoint x="575" y="290" as="sourcePoint" />
            <mxPoint x="359.6666666666665" y="290" as="targetPoint" />
          </mxGeometry>
        </mxCell>
        <mxCell id="yqZwaxu3UopcbkUO5Tiz-13" value="Transmet la validation" style="html=1;verticalAlign=bottom;endArrow=open;dashed=1;endSize=8;curved=0;rounded=0;" edge="1" parent="1">
          <mxGeometry relative="1" as="geometry">
            <mxPoint x="360" y="310" as="sourcePoint" />
            <mxPoint x="169.99666666666653" y="310" as="targetPoint" />
          </mxGeometry>
        </mxCell>
        <mxCell id="yqZwaxu3UopcbkUO5Tiz-16" value="alt" style="shape=umlFrame;whiteSpace=wrap;html=1;pointerEvents=0;" vertex="1" parent="1">
          <mxGeometry x="90" y="260" width="1050" height="280" as="geometry" />
        </mxCell>
        <mxCell id="yqZwaxu3UopcbkUO5Tiz-17" value="[Vente validée]" style="text;html=1;align=center;verticalAlign=middle;whiteSpace=wrap;rounded=0;" vertex="1" parent="1">
          <mxGeometry x="90" y="310" width="60" height="30" as="geometry" />
        </mxCell>
        <mxCell id="yqZwaxu3UopcbkUO5Tiz-19" value="Refuse la vente" style="html=1;verticalAlign=bottom;endArrow=open;dashed=1;endSize=8;curved=0;rounded=0;" edge="1" parent="1">
          <mxGeometry relative="1" as="geometry">
            <mxPoint x="575.33" y="450" as="sourcePoint" />
            <mxPoint x="359.9966666666665" y="450" as="targetPoint" />
          </mxGeometry>
        </mxCell>
        <mxCell id="yqZwaxu3UopcbkUO5Tiz-20" value="Transmet le refus" style="html=1;verticalAlign=bottom;endArrow=open;dashed=1;endSize=8;curved=0;rounded=0;" edge="1" parent="1">
          <mxGeometry relative="1" as="geometry">
            <mxPoint x="360" y="500" as="sourcePoint" />
            <mxPoint x="169.99666666666653" y="500" as="targetPoint" />
          </mxGeometry>
        </mxCell>
        <mxCell id="yqZwaxu3UopcbkUO5Tiz-21" value="[Vente refusée]" style="text;html=1;align=center;verticalAlign=middle;whiteSpace=wrap;rounded=0;" vertex="1" parent="1">
          <mxGeometry x="90" y="470" width="60" height="30" as="geometry" />
        </mxCell>
        <mxCell id="yqZwaxu3UopcbkUO5Tiz-22" value="" style="endArrow=none;dashed=1;html=1;rounded=0;exitX=0.001;exitY=0.385;exitDx=0;exitDy=0;exitPerimeter=0;entryX=1.002;entryY=0.397;entryDx=0;entryDy=0;entryPerimeter=0;" edge="1" parent="1">
          <mxGeometry width="50" height="50" relative="1" as="geometry">
            <mxPoint x="90.00000000000018" y="389.99999999999994" as="sourcePoint" />
            <mxPoint x="1141.05" y="393.36000000000007" as="targetPoint" />
          </mxGeometry>
        </mxCell>
        <mxCell id="yqZwaxu3UopcbkUO5Tiz-23" value="" style="html=1;points=[[0,0,0,0,5],[0,1,0,0,-5],[1,0,0,0,5],[1,1,0,0,-5]];perimeter=orthogonalPerimeter;outlineConnect=0;targetShapes=umlLifeline;portConstraint=eastwest;newEdgeStyle={&quot;curved&quot;:0,&quot;rounded&quot;:0};" vertex="1" parent="1">
          <mxGeometry x="1005" y="330" width="10" height="40" as="geometry" />
        </mxCell>
        <mxCell id="yqZwaxu3UopcbkUO5Tiz-24" value="Notifie les clients privilégiés de la vente" style="html=1;verticalAlign=bottom;endArrow=block;curved=0;rounded=0;" edge="1" parent="1" target="yqZwaxu3UopcbkUO5Tiz-23">
          <mxGeometry x="0.1163" y="10" width="80" relative="1" as="geometry">
            <mxPoint x="360" y="340" as="sourcePoint" />
            <mxPoint x="440" y="340" as="targetPoint" />
            <mxPoint as="offset" />
          </mxGeometry>
        </mxCell>
        <mxCell id="yqZwaxu3UopcbkUO5Tiz-25" value="Envoie le mail de notification" style="html=1;verticalAlign=bottom;endArrow=open;dashed=1;endSize=8;curved=0;rounded=0;" edge="1" parent="1">
          <mxGeometry x="-0.0008" relative="1" as="geometry">
            <mxPoint x="1005" y="370" as="sourcePoint" />
            <mxPoint x="780" y="370" as="targetPoint" />
            <mxPoint as="offset" />
          </mxGeometry>
        </mxCell>
      </root>
    </mxGraphModel>
  </diagram>
  <diagram id="7mC6IBY6tq45BwQlkaTZ" name="Diagramme CU">
    <mxGraphModel dx="2280" dy="1484" grid="0" gridSize="10" guides="1" tooltips="1" connect="1" arrows="1" fold="1" page="1" pageScale="1" pageWidth="1169" pageHeight="827" math="0" shadow="0">
      <root>
        <mxCell id="0" />
        <mxCell id="1" parent="0" />
        <mxCell id="uaVCq8zFHMF_Q8fhXUx_-1" value="" style="endArrow=none;html=1;rounded=0;" parent="1" edge="1">
          <mxGeometry width="50" height="50" relative="1" as="geometry">
            <mxPoint x="153" y="818" as="sourcePoint" />
            <mxPoint x="153" y="4" as="targetPoint" />
          </mxGeometry>
        </mxCell>
        <mxCell id="uaVCq8zFHMF_Q8fhXUx_-3" value="Fournisseur" style="shape=umlActor;html=1;verticalLabelPosition=bottom;verticalAlign=top;align=center;" parent="1" vertex="1">
          <mxGeometry x="68" y="103" width="30" height="60" as="geometry" />
        </mxCell>
        <mxCell id="uaVCq8zFHMF_Q8fhXUx_-8" value="" style="group" parent="1" vertex="1" connectable="0">
          <mxGeometry x="451" y="5" width="172" height="80" as="geometry" />
        </mxCell>
        <mxCell id="uaVCq8zFHMF_Q8fhXUx_-6" value="" style="ellipse;whiteSpace=wrap;html=1;" parent="uaVCq8zFHMF_Q8fhXUx_-8" vertex="1">
          <mxGeometry width="172" height="80" as="geometry" />
        </mxCell>
        <mxCell id="uaVCq8zFHMF_Q8fhXUx_-7" value="Renseigner les informations de la vente" style="text;html=1;align=center;verticalAlign=middle;whiteSpace=wrap;rounded=0;" parent="uaVCq8zFHMF_Q8fhXUx_-8" vertex="1">
          <mxGeometry x="43" y="25" width="86" height="30" as="geometry" />
        </mxCell>
        <mxCell id="uaVCq8zFHMF_Q8fhXUx_-9" value="" style="group" parent="1" vertex="1" connectable="0">
          <mxGeometry x="331" y="70" width="172" height="80" as="geometry" />
        </mxCell>
        <mxCell id="uaVCq8zFHMF_Q8fhXUx_-10" value="" style="ellipse;whiteSpace=wrap;html=1;" parent="uaVCq8zFHMF_Q8fhXUx_-9" vertex="1">
          <mxGeometry width="172" height="80" as="geometry" />
        </mxCell>
        <mxCell id="uaVCq8zFHMF_Q8fhXUx_-11" value="Ajouter des produits" style="text;html=1;align=center;verticalAlign=middle;whiteSpace=wrap;rounded=0;" parent="uaVCq8zFHMF_Q8fhXUx_-9" vertex="1">
          <mxGeometry x="43" y="25" width="86" height="30" as="geometry" />
        </mxCell>
        <mxCell id="uaVCq8zFHMF_Q8fhXUx_-13" value="" style="group" parent="1" vertex="1" connectable="0">
          <mxGeometry x="318" y="184" width="172" height="80" as="geometry" />
        </mxCell>
        <mxCell id="uaVCq8zFHMF_Q8fhXUx_-14" value="" style="ellipse;whiteSpace=wrap;html=1;" parent="uaVCq8zFHMF_Q8fhXUx_-13" vertex="1">
          <mxGeometry width="172" height="80" as="geometry" />
        </mxCell>
        <mxCell id="uaVCq8zFHMF_Q8fhXUx_-15" value="Soumettre la vente" style="text;html=1;align=center;verticalAlign=middle;whiteSpace=wrap;rounded=0;" parent="uaVCq8zFHMF_Q8fhXUx_-13" vertex="1">
          <mxGeometry x="43" y="25" width="86" height="30" as="geometry" />
        </mxCell>
        <mxCell id="uaVCq8zFHMF_Q8fhXUx_-16" value="" style="endArrow=none;html=1;rounded=0;exitX=1;exitY=0.3333333333333333;exitDx=0;exitDy=0;exitPerimeter=0;entryX=0;entryY=0.5;entryDx=0;entryDy=0;" parent="1" source="uaVCq8zFHMF_Q8fhXUx_-3" target="uaVCq8zFHMF_Q8fhXUx_-6" edge="1">
          <mxGeometry width="50" height="50" relative="1" as="geometry">
            <mxPoint x="560" y="423" as="sourcePoint" />
            <mxPoint x="610" y="373" as="targetPoint" />
          </mxGeometry>
        </mxCell>
        <mxCell id="uaVCq8zFHMF_Q8fhXUx_-17" value="" style="endArrow=none;html=1;rounded=0;entryX=0;entryY=0.5;entryDx=0;entryDy=0;exitX=1;exitY=0.3333333333333333;exitDx=0;exitDy=0;exitPerimeter=0;" parent="1" source="uaVCq8zFHMF_Q8fhXUx_-3" target="uaVCq8zFHMF_Q8fhXUx_-10" edge="1">
          <mxGeometry width="50" height="50" relative="1" as="geometry">
            <mxPoint x="174" y="358" as="sourcePoint" />
            <mxPoint x="509" y="178" as="targetPoint" />
          </mxGeometry>
        </mxCell>
        <mxCell id="uaVCq8zFHMF_Q8fhXUx_-18" value="" style="endArrow=none;html=1;rounded=0;entryX=0;entryY=0.5;entryDx=0;entryDy=0;exitX=1;exitY=0.3333333333333333;exitDx=0;exitDy=0;exitPerimeter=0;" parent="1" source="uaVCq8zFHMF_Q8fhXUx_-3" target="uaVCq8zFHMF_Q8fhXUx_-14" edge="1">
          <mxGeometry width="50" height="50" relative="1" as="geometry">
            <mxPoint x="177" y="357" as="sourcePoint" />
            <mxPoint x="509" y="416" as="targetPoint" />
          </mxGeometry>
        </mxCell>
        <mxCell id="uaVCq8zFHMF_Q8fhXUx_-25" value="Client Privilégié" style="shape=umlActor;verticalLabelPosition=bottom;verticalAlign=top;html=1;outlineConnect=0;" parent="1" vertex="1">
          <mxGeometry x="56" y="340" width="30" height="60" as="geometry" />
        </mxCell>
        <mxCell id="uaVCq8zFHMF_Q8fhXUx_-26" value="" style="group" parent="1" vertex="1" connectable="0">
          <mxGeometry x="327" y="349" width="172" height="80" as="geometry" />
        </mxCell>
        <mxCell id="uaVCq8zFHMF_Q8fhXUx_-27" value="" style="ellipse;whiteSpace=wrap;html=1;" parent="uaVCq8zFHMF_Q8fhXUx_-26" vertex="1">
          <mxGeometry width="172" height="80" as="geometry" />
        </mxCell>
        <mxCell id="uaVCq8zFHMF_Q8fhXUx_-28" value="S&#39;inscrire à une vente" style="text;html=1;align=center;verticalAlign=middle;whiteSpace=wrap;rounded=0;" parent="uaVCq8zFHMF_Q8fhXUx_-26" vertex="1">
          <mxGeometry x="43" y="25" width="86" height="30" as="geometry" />
        </mxCell>
        <mxCell id="uaVCq8zFHMF_Q8fhXUx_-29" value="" style="group" parent="1" vertex="1" connectable="0">
          <mxGeometry x="246" y="452" width="172" height="80" as="geometry" />
        </mxCell>
        <mxCell id="uaVCq8zFHMF_Q8fhXUx_-30" value="" style="ellipse;whiteSpace=wrap;html=1;" parent="uaVCq8zFHMF_Q8fhXUx_-29" vertex="1">
          <mxGeometry width="172" height="80" as="geometry" />
        </mxCell>
        <mxCell id="uaVCq8zFHMF_Q8fhXUx_-31" value="Participer à une vente" style="text;html=1;align=center;verticalAlign=middle;whiteSpace=wrap;rounded=0;" parent="uaVCq8zFHMF_Q8fhXUx_-29" vertex="1">
          <mxGeometry x="43" y="25" width="86" height="30" as="geometry" />
        </mxCell>
        <mxCell id="uaVCq8zFHMF_Q8fhXUx_-32" value="" style="endArrow=none;html=1;rounded=0;exitX=1;exitY=0.3333333333333333;exitDx=0;exitDy=0;exitPerimeter=0;entryX=0;entryY=0.5;entryDx=0;entryDy=0;" parent="1" source="uaVCq8zFHMF_Q8fhXUx_-25" target="uaVCq8zFHMF_Q8fhXUx_-27" edge="1">
          <mxGeometry width="50" height="50" relative="1" as="geometry">
            <mxPoint x="560" y="423" as="sourcePoint" />
            <mxPoint x="241" y="397" as="targetPoint" />
          </mxGeometry>
        </mxCell>
        <mxCell id="uaVCq8zFHMF_Q8fhXUx_-33" value="" style="edgeStyle=none;html=1;endArrow=none;verticalAlign=bottom;rounded=0;exitX=1;exitY=0.3333333333333333;exitDx=0;exitDy=0;exitPerimeter=0;entryX=0;entryY=0.5;entryDx=0;entryDy=0;" parent="1" source="uaVCq8zFHMF_Q8fhXUx_-25" target="uaVCq8zFHMF_Q8fhXUx_-30" edge="1">
          <mxGeometry width="160" relative="1" as="geometry">
            <mxPoint x="505" y="398" as="sourcePoint" />
            <mxPoint x="665" y="398" as="targetPoint" />
          </mxGeometry>
        </mxCell>
        <mxCell id="uaVCq8zFHMF_Q8fhXUx_-34" value="Gérant" style="shape=umlActor;verticalLabelPosition=bottom;verticalAlign=top;html=1;outlineConnect=0;" parent="1" vertex="1">
          <mxGeometry x="68" y="552" width="30" height="60" as="geometry" />
        </mxCell>
        <mxCell id="uaVCq8zFHMF_Q8fhXUx_-35" value="" style="group" parent="1" vertex="1" connectable="0">
          <mxGeometry x="585" y="624" width="172" height="80" as="geometry" />
        </mxCell>
        <mxCell id="uaVCq8zFHMF_Q8fhXUx_-36" value="" style="ellipse;whiteSpace=wrap;html=1;" parent="uaVCq8zFHMF_Q8fhXUx_-35" vertex="1">
          <mxGeometry width="172" height="80" as="geometry" />
        </mxCell>
        <mxCell id="uaVCq8zFHMF_Q8fhXUx_-37" value="Accepte/Refuse les ventes" style="text;html=1;align=center;verticalAlign=middle;whiteSpace=wrap;rounded=0;" parent="uaVCq8zFHMF_Q8fhXUx_-35" vertex="1">
          <mxGeometry x="43" y="25" width="86" height="30" as="geometry" />
        </mxCell>
        <mxCell id="uaVCq8zFHMF_Q8fhXUx_-38" value="" style="group" parent="1" vertex="1" connectable="0">
          <mxGeometry x="413" y="552" width="172" height="80" as="geometry" />
        </mxCell>
        <mxCell id="uaVCq8zFHMF_Q8fhXUx_-39" value="" style="ellipse;whiteSpace=wrap;html=1;" parent="uaVCq8zFHMF_Q8fhXUx_-38" vertex="1">
          <mxGeometry width="172" height="80" as="geometry" />
        </mxCell>
        <mxCell id="uaVCq8zFHMF_Q8fhXUx_-40" value="Invite des clients à devenir privilégiés" style="text;html=1;align=center;verticalAlign=middle;whiteSpace=wrap;rounded=0;" parent="uaVCq8zFHMF_Q8fhXUx_-38" vertex="1">
          <mxGeometry x="43" y="25" width="86" height="30" as="geometry" />
        </mxCell>
        <mxCell id="uaVCq8zFHMF_Q8fhXUx_-42" value="Client" style="shape=umlActor;verticalLabelPosition=bottom;verticalAlign=top;html=1;outlineConnect=0;" parent="1" vertex="1">
          <mxGeometry x="73" y="708" width="30" height="60" as="geometry" />
        </mxCell>
        <mxCell id="uaVCq8zFHMF_Q8fhXUx_-44" value="" style="group" parent="1" vertex="1" connectable="0">
          <mxGeometry x="278" y="706" width="172" height="80" as="geometry" />
        </mxCell>
        <mxCell id="uaVCq8zFHMF_Q8fhXUx_-45" value="" style="ellipse;whiteSpace=wrap;html=1;" parent="uaVCq8zFHMF_Q8fhXUx_-44" vertex="1">
          <mxGeometry width="172" height="80" as="geometry" />
        </mxCell>
        <mxCell id="uaVCq8zFHMF_Q8fhXUx_-46" value="S&#39;authentifier/S&#39;inscrire" style="text;html=1;align=center;verticalAlign=middle;whiteSpace=wrap;rounded=0;" parent="uaVCq8zFHMF_Q8fhXUx_-44" vertex="1">
          <mxGeometry x="43" y="25" width="86" height="30" as="geometry" />
        </mxCell>
        <mxCell id="uaVCq8zFHMF_Q8fhXUx_-47" value="" style="endArrow=none;html=1;rounded=0;exitX=1;exitY=0.3333333333333333;exitDx=0;exitDy=0;exitPerimeter=0;entryX=0;entryY=0.5;entryDx=0;entryDy=0;" parent="1" source="uaVCq8zFHMF_Q8fhXUx_-34" target="uaVCq8zFHMF_Q8fhXUx_-39" edge="1">
          <mxGeometry width="50" height="50" relative="1" as="geometry">
            <mxPoint x="560" y="423" as="sourcePoint" />
            <mxPoint x="610" y="373" as="targetPoint" />
          </mxGeometry>
        </mxCell>
        <mxCell id="uaVCq8zFHMF_Q8fhXUx_-48" value="" style="endArrow=none;html=1;rounded=0;exitX=1;exitY=0.3333333333333333;exitDx=0;exitDy=0;exitPerimeter=0;entryX=0;entryY=0.5;entryDx=0;entryDy=0;" parent="1" source="uaVCq8zFHMF_Q8fhXUx_-34" target="uaVCq8zFHMF_Q8fhXUx_-36" edge="1">
          <mxGeometry width="50" height="50" relative="1" as="geometry">
            <mxPoint x="108" y="582" as="sourcePoint" />
            <mxPoint x="261" y="614" as="targetPoint" />
          </mxGeometry>
        </mxCell>
        <mxCell id="uaVCq8zFHMF_Q8fhXUx_-49" value="" style="endArrow=none;html=1;rounded=0;exitX=1;exitY=0.3333333333333333;exitDx=0;exitDy=0;exitPerimeter=0;entryX=0;entryY=0.5;entryDx=0;entryDy=0;" parent="1" source="uaVCq8zFHMF_Q8fhXUx_-42" target="uaVCq8zFHMF_Q8fhXUx_-45" edge="1">
          <mxGeometry width="50" height="50" relative="1" as="geometry">
            <mxPoint x="560" y="423" as="sourcePoint" />
            <mxPoint x="610" y="373" as="targetPoint" />
          </mxGeometry>
        </mxCell>
        <mxCell id="uaVCq8zFHMF_Q8fhXUx_-50" value="" style="endArrow=none;html=1;rounded=0;" parent="1" edge="1">
          <mxGeometry width="50" height="50" relative="1" as="geometry">
            <mxPoint x="863" y="821" as="sourcePoint" />
            <mxPoint x="863" y="7" as="targetPoint" />
          </mxGeometry>
        </mxCell>
        <mxCell id="uaVCq8zFHMF_Q8fhXUx_-51" value="PayPal" style="shape=umlActor;verticalLabelPosition=bottom;verticalAlign=top;html=1;outlineConnect=0;" parent="1" vertex="1">
          <mxGeometry x="988" y="472" width="30" height="60" as="geometry" />
        </mxCell>
        <mxCell id="uaVCq8zFHMF_Q8fhXUx_-52" value="Paye un ou des produits" style="ellipse;whiteSpace=wrap;html=1;" parent="1" vertex="1">
          <mxGeometry x="553" y="452" width="120" height="80" as="geometry" />
        </mxCell>
        <mxCell id="uaVCq8zFHMF_Q8fhXUx_-53" value="&amp;lt;&amp;lt;extends&amp;gt;&amp;gt;" style="edgeStyle=none;html=1;endArrow=open;verticalAlign=bottom;dashed=1;labelBackgroundColor=none;rounded=0;exitX=1;exitY=0.5;exitDx=0;exitDy=0;entryX=0;entryY=0.5;entryDx=0;entryDy=0;" parent="1" source="uaVCq8zFHMF_Q8fhXUx_-30" target="uaVCq8zFHMF_Q8fhXUx_-52" edge="1">
          <mxGeometry width="160" relative="1" as="geometry">
            <mxPoint x="505" y="398" as="sourcePoint" />
            <mxPoint x="665" y="398" as="targetPoint" />
          </mxGeometry>
        </mxCell>
        <mxCell id="uaVCq8zFHMF_Q8fhXUx_-54" value="" style="endArrow=none;html=1;rounded=0;exitX=1;exitY=0.5;exitDx=0;exitDy=0;entryX=0;entryY=0.3333333333333333;entryDx=0;entryDy=0;entryPerimeter=0;" parent="1" source="uaVCq8zFHMF_Q8fhXUx_-52" target="uaVCq8zFHMF_Q8fhXUx_-51" edge="1">
          <mxGeometry width="50" height="50" relative="1" as="geometry">
            <mxPoint x="560" y="423" as="sourcePoint" />
            <mxPoint x="610" y="373" as="targetPoint" />
          </mxGeometry>
        </mxCell>
        <mxCell id="M2xWScqc5iYlzHXlbFVQ-5" value="" style="group" vertex="1" connectable="0" parent="1">
          <mxGeometry x="484" y="137" width="172" height="80" as="geometry" />
        </mxCell>
        <mxCell id="M2xWScqc5iYlzHXlbFVQ-6" value="" style="ellipse;whiteSpace=wrap;html=1;" vertex="1" parent="M2xWScqc5iYlzHXlbFVQ-5">
          <mxGeometry width="172" height="80" as="geometry" />
        </mxCell>
        <mxCell id="M2xWScqc5iYlzHXlbFVQ-7" value="S&#39;authentifier/S&#39;inscrire" style="text;html=1;align=center;verticalAlign=middle;whiteSpace=wrap;rounded=0;" vertex="1" parent="M2xWScqc5iYlzHXlbFVQ-5">
          <mxGeometry x="43" y="25" width="86" height="30" as="geometry" />
        </mxCell>
        <mxCell id="M2xWScqc5iYlzHXlbFVQ-8" value="" style="endArrow=none;html=1;rounded=0;entryX=0;entryY=0.5;entryDx=0;entryDy=0;" edge="1" parent="1" target="M2xWScqc5iYlzHXlbFVQ-6">
          <mxGeometry width="50" height="50" relative="1" as="geometry">
            <mxPoint x="98" y="123" as="sourcePoint" />
            <mxPoint x="549" y="320" as="targetPoint" />
          </mxGeometry>
        </mxCell>
      </root>
    </mxGraphModel>
  </diagram>
  <diagram id="d7_etD8cHIf4q-ojojS2" name="Diagramme de séquence corrigé">
    <mxGraphModel dx="1710" dy="1113" grid="1" gridSize="10" guides="1" tooltips="1" connect="1" arrows="1" fold="1" page="1" pageScale="1" pageWidth="1169" pageHeight="827" math="0" shadow="0">
      <root>
        <mxCell id="0" />
        <mxCell id="1" parent="0" />
        <mxCell id="qeoZLnWQsb--CZZFX47T-1" value="&lt;div&gt;Boun&lt;/div&gt;&lt;div&gt;dary&lt;/div&gt;" style="shape=umlLifeline;perimeter=lifelinePerimeter;whiteSpace=wrap;html=1;container=1;dropTarget=0;collapsible=0;recursiveResize=0;outlineConnect=0;portConstraint=eastwest;newEdgeStyle={&quot;curved&quot;:0,&quot;rounded&quot;:0};participant=umlBoundary;align=center;" vertex="1" parent="1">
          <mxGeometry x="590" y="80" width="50" height="700" as="geometry" />
        </mxCell>
        <mxCell id="qeoZLnWQsb--CZZFX47T-2" value="" style="html=1;points=[[0,0,0,0,5],[0,1,0,0,-5],[1,0,0,0,5],[1,1,0,0,-5]];perimeter=orthogonalPerimeter;outlineConnect=0;targetShapes=umlLifeline;portConstraint=eastwest;newEdgeStyle={&quot;curved&quot;:0,&quot;rounded&quot;:0};" vertex="1" parent="qeoZLnWQsb--CZZFX47T-1">
          <mxGeometry x="20" y="60" width="10" height="620" as="geometry" />
        </mxCell>
        <mxCell id="qeoZLnWQsb--CZZFX47T-3" value="FOURNISSEUR" style="shape=umlLifeline;perimeter=lifelinePerimeter;whiteSpace=wrap;html=1;container=1;dropTarget=0;collapsible=0;recursiveResize=0;outlineConnect=0;portConstraint=eastwest;newEdgeStyle={&quot;edgeStyle&quot;:&quot;elbowEdgeStyle&quot;,&quot;elbow&quot;:&quot;vertical&quot;,&quot;curved&quot;:0,&quot;rounded&quot;:0};" vertex="1" parent="1">
          <mxGeometry x="320" y="80" width="100" height="680" as="geometry" />
        </mxCell>
        <mxCell id="qeoZLnWQsb--CZZFX47T-4" value="" style="html=1;points=[[0,0,0,0,5],[0,1,0,0,-5],[1,0,0,0,5],[1,1,0,0,-5]];perimeter=orthogonalPerimeter;outlineConnect=0;targetShapes=umlLifeline;portConstraint=eastwest;newEdgeStyle={&quot;curved&quot;:0,&quot;rounded&quot;:0};" vertex="1" parent="qeoZLnWQsb--CZZFX47T-3">
          <mxGeometry x="45" y="60" width="10" height="600" as="geometry" />
        </mxCell>
        <mxCell id="qeoZLnWQsb--CZZFX47T-5" value="control" style="shape=umlLifeline;perimeter=lifelinePerimeter;whiteSpace=wrap;html=1;container=1;dropTarget=0;collapsible=0;recursiveResize=0;outlineConnect=0;portConstraint=eastwest;newEdgeStyle={&quot;curved&quot;:0,&quot;rounded&quot;:0};participant=umlControl;" vertex="1" parent="1">
          <mxGeometry x="790" y="80" width="40" height="700" as="geometry" />
        </mxCell>
        <mxCell id="qeoZLnWQsb--CZZFX47T-6" value="" style="html=1;points=[[0,0,0,0,5],[0,1,0,0,-5],[1,0,0,0,5],[1,1,0,0,-5]];perimeter=orthogonalPerimeter;outlineConnect=0;targetShapes=umlLifeline;portConstraint=eastwest;newEdgeStyle={&quot;curved&quot;:0,&quot;rounded&quot;:0};" vertex="1" parent="qeoZLnWQsb--CZZFX47T-5">
          <mxGeometry x="15" y="80" width="10" height="600" as="geometry" />
        </mxCell>
        <mxCell id="qeoZLnWQsb--CZZFX47T-7" value="alt" style="shape=umlFrame;whiteSpace=wrap;html=1;pointerEvents=0;" vertex="1" parent="1">
          <mxGeometry x="340" y="180" width="540" height="520" as="geometry" />
        </mxCell>
        <mxCell id="qeoZLnWQsb--CZZFX47T-8" value="" style="line;strokeWidth=1;fillColor=none;align=left;verticalAlign=middle;spacingTop=-1;spacingLeft=3;spacingRight=3;rotatable=0;labelPosition=right;points=[];portConstraint=eastwest;strokeColor=inherit;" vertex="1" parent="1">
          <mxGeometry x="355" y="260" width="505" height="8" as="geometry" />
        </mxCell>
        <mxCell id="qeoZLnWQsb--CZZFX47T-9" value="Identification" style="html=1;verticalAlign=bottom;endArrow=block;curved=0;rounded=0;" edge="1" parent="1">
          <mxGeometry width="80" relative="1" as="geometry">
            <mxPoint x="382" y="140" as="sourcePoint" />
            <mxPoint x="602" y="140" as="targetPoint" />
          </mxGeometry>
        </mxCell>
        <mxCell id="qeoZLnWQsb--CZZFX47T-10" value="Vérifier l&#39;identification" style="html=1;verticalAlign=bottom;endArrow=block;curved=0;rounded=0;" edge="1" parent="1">
          <mxGeometry width="80" relative="1" as="geometry">
            <mxPoint x="630" y="160" as="sourcePoint" />
            <mxPoint x="800" y="160" as="targetPoint" />
          </mxGeometry>
        </mxCell>
        <mxCell id="qeoZLnWQsb--CZZFX47T-11" value="[Identifié]" style="text;html=1;align=center;verticalAlign=middle;resizable=0;points=[];autosize=1;strokeColor=none;fillColor=none;" vertex="1" parent="1">
          <mxGeometry x="400" y="180" width="80" height="30" as="geometry" />
        </mxCell>
        <mxCell id="qeoZLnWQsb--CZZFX47T-12" value="[Non identifié]" style="text;html=1;align=center;verticalAlign=middle;resizable=0;points=[];autosize=1;strokeColor=none;fillColor=none;" vertex="1" parent="1">
          <mxGeometry x="380" y="268" width="110" height="30" as="geometry" />
        </mxCell>
        <mxCell id="qeoZLnWQsb--CZZFX47T-13" value="ProposerVente" style="html=1;verticalAlign=bottom;endArrow=block;curved=0;rounded=0;" edge="1" parent="1">
          <mxGeometry width="80" relative="1" as="geometry">
            <mxPoint x="380" y="733" as="sourcePoint" />
            <mxPoint x="600" y="733" as="targetPoint" />
          </mxGeometry>
        </mxCell>
        <mxCell id="qeoZLnWQsb--CZZFX47T-14" value="??" style="html=1;verticalAlign=bottom;endArrow=block;curved=0;rounded=0;" edge="1" parent="1">
          <mxGeometry width="80" relative="1" as="geometry">
            <mxPoint x="625" y="751" as="sourcePoint" />
            <mxPoint x="805" y="751" as="targetPoint" />
          </mxGeometry>
        </mxCell>
        <mxCell id="qeoZLnWQsb--CZZFX47T-15" value="accès accordé" style="html=1;verticalAlign=bottom;endArrow=open;dashed=1;endSize=8;curved=0;rounded=0;" edge="1" parent="1">
          <mxGeometry relative="1" as="geometry">
            <mxPoint x="790" y="210" as="sourcePoint" />
            <mxPoint x="640" y="210" as="targetPoint" />
          </mxGeometry>
        </mxCell>
        <mxCell id="qeoZLnWQsb--CZZFX47T-16" value="Bienvenue fournisseur &amp;lt;fournisseur&amp;gt;" style="html=1;verticalAlign=bottom;endArrow=open;dashed=1;endSize=8;curved=0;rounded=0;" edge="1" parent="1">
          <mxGeometry relative="1" as="geometry">
            <mxPoint x="583" y="240" as="sourcePoint" />
            <mxPoint x="393" y="240" as="targetPoint" />
          </mxGeometry>
        </mxCell>
        <mxCell id="qeoZLnWQsb--CZZFX47T-17" value="Formulaire de connexion" style="html=1;verticalAlign=bottom;endArrow=open;dashed=1;endSize=8;curved=0;rounded=0;" edge="1" parent="1">
          <mxGeometry relative="1" as="geometry">
            <mxPoint x="580" y="323" as="sourcePoint" />
            <mxPoint x="390" y="323" as="targetPoint" />
          </mxGeometry>
        </mxCell>
        <mxCell id="qeoZLnWQsb--CZZFX47T-18" value="Identifiant, mot de passe" style="html=1;verticalAlign=bottom;endArrow=block;curved=0;rounded=0;" edge="1" parent="1">
          <mxGeometry width="80" relative="1" as="geometry">
            <mxPoint x="380" y="360" as="sourcePoint" />
            <mxPoint x="600" y="360" as="targetPoint" />
          </mxGeometry>
        </mxCell>
        <mxCell id="qeoZLnWQsb--CZZFX47T-19" value="" style="line;strokeWidth=1;fillColor=none;align=left;verticalAlign=middle;spacingTop=-1;spacingLeft=3;spacingRight=3;rotatable=0;labelPosition=right;points=[];portConstraint=eastwest;strokeColor=inherit;" vertex="1" parent="1">
          <mxGeometry x="361.5" y="545" width="477.5" height="8" as="geometry" />
        </mxCell>
        <mxCell id="qeoZLnWQsb--CZZFX47T-20" value="" style="group" vertex="1" connectable="0" parent="1">
          <mxGeometry x="350" y="390" width="510" height="300" as="geometry" />
        </mxCell>
        <mxCell id="qeoZLnWQsb--CZZFX47T-21" value="loop" style="shape=umlFrame;whiteSpace=wrap;html=1;pointerEvents=0;" vertex="1" parent="qeoZLnWQsb--CZZFX47T-20">
          <mxGeometry width="510" height="290" as="geometry" />
        </mxCell>
        <mxCell id="qeoZLnWQsb--CZZFX47T-22" value="[Tant que Identifiant incorrect]" style="text;html=1;align=center;verticalAlign=middle;resizable=0;points=[];autosize=1;strokeColor=none;fillColor=none;" vertex="1" parent="qeoZLnWQsb--CZZFX47T-20">
          <mxGeometry x="60" y="10" width="200" height="30" as="geometry" />
        </mxCell>
        <mxCell id="qeoZLnWQsb--CZZFX47T-23" value="" style="group" vertex="1" connectable="0" parent="qeoZLnWQsb--CZZFX47T-20">
          <mxGeometry x="10" y="45" width="480" height="225" as="geometry" />
        </mxCell>
        <mxCell id="qeoZLnWQsb--CZZFX47T-24" value="&lt;div&gt;alt&lt;/div&gt;" style="shape=umlFrame;whiteSpace=wrap;html=1;pointerEvents=0;" vertex="1" parent="qeoZLnWQsb--CZZFX47T-23">
          <mxGeometry width="480" height="225.00000000000003" as="geometry" />
        </mxCell>
        <mxCell id="qeoZLnWQsb--CZZFX47T-25" value="[Identifiants incorrects]" style="text;html=1;align=center;verticalAlign=middle;resizable=0;points=[];autosize=1;strokeColor=none;fillColor=none;" vertex="1" parent="qeoZLnWQsb--CZZFX47T-23">
          <mxGeometry x="17" y="121.39534883720931" width="160" height="30" as="geometry" />
        </mxCell>
        <mxCell id="qeoZLnWQsb--CZZFX47T-26" value="[Identifiants corrects]" style="text;html=1;align=center;verticalAlign=middle;resizable=0;points=[];autosize=1;strokeColor=none;fillColor=none;" vertex="1" parent="qeoZLnWQsb--CZZFX47T-23">
          <mxGeometry x="60" y="1.0465116279069768" width="150" height="30" as="geometry" />
        </mxCell>
        <mxCell id="qeoZLnWQsb--CZZFX47T-27" value="Bienvenue fournisseur &amp;lt;fournisseur&amp;gt;" style="html=1;verticalAlign=bottom;endArrow=open;dashed=1;endSize=8;curved=0;rounded=0;" edge="1" parent="qeoZLnWQsb--CZZFX47T-23">
          <mxGeometry relative="1" as="geometry">
            <mxPoint x="238" y="62.79069767441861" as="sourcePoint" />
            <mxPoint x="28" y="62.79069767441861" as="targetPoint" />
          </mxGeometry>
        </mxCell>
        <mxCell id="qeoZLnWQsb--CZZFX47T-28" value="Mauvais identifiants ou mot de passe" style="html=1;verticalAlign=bottom;endArrow=open;dashed=1;endSize=8;curved=0;rounded=0;" edge="1" parent="qeoZLnWQsb--CZZFX47T-23">
          <mxGeometry relative="1" as="geometry">
            <mxPoint x="239" y="190.46511627906978" as="sourcePoint" />
            <mxPoint x="29" y="190.46511627906978" as="targetPoint" />
          </mxGeometry>
        </mxCell>
      </root>
    </mxGraphModel>
  </diagram>
</mxfile>
